solid ASCII
  facet normal -3.492421e-04 -9.999999e-01 3.552756e-15
    outer loop
      vertex   1.138528e+01 -5.561030e+00 -3.599897e+00
      vertex   6.885282e+00 -5.559458e+00 -3.599897e+00
      vertex   1.138528e+01 -5.561030e+00 -3.259990e+01
    endloop
  endfacet
  facet normal -3.492421e-04 -9.999999e-01 3.552740e-15
    outer loop
      vertex   1.138528e+01 -5.561030e+00 -3.259990e+01
      vertex   6.885282e+00 -5.559458e+00 -3.599897e+00
      vertex   6.885282e+00 -5.559458e+00 -3.259990e+01
    endloop
  endfacet
  facet normal -9.999999e-01 3.491513e-04 -3.246496e-12
    outer loop
      vertex   6.883902e+00 -9.511537e+00 -3.259990e+01
      vertex   6.885282e+00 -5.559458e+00 -3.259990e+01
      vertex   6.883902e+00 -9.511578e+00 -3.379996e+01
    endloop
  endfacet
  facet normal -9.999999e-01 3.490583e-04 3.063012e-07
    outer loop
      vertex   6.883902e+00 -9.511578e+00 -3.379996e+01
      vertex   6.885282e+00 -5.559458e+00 -3.259990e+01
      vertex   6.886694e+00 -1.511579e+00 -3.380024e+01
    endloop
  endfacet
  facet normal -9.999999e-01 3.489675e-04 3.156540e-12
    outer loop
      vertex   6.886694e+00 -1.511579e+00 -3.380024e+01
      vertex   6.885282e+00 -5.559458e+00 -3.259990e+01
      vertex   6.886695e+00 -1.510494e+00 -2.600482e+00
    endloop
  endfacet
  facet normal -9.999999e-01 3.489675e-04 6.001803e-17
    outer loop
      vertex   6.886695e+00 -1.510494e+00 -2.600482e+00
      vertex   6.885282e+00 -5.559458e+00 -3.259990e+01
      vertex   6.885282e+00 -5.559458e+00 -3.599897e+00
    endloop
  endfacet
  facet normal -9.999999e-01 3.490583e-04 -3.677856e-07
    outer loop
      vertex   6.886695e+00 -1.510494e+00 -2.600482e+00
      vertex   6.885282e+00 -5.559458e+00 -3.599897e+00
      vertex   6.883902e+00 -9.510494e+00 -2.600204e+00
    endloop
  endfacet
  facet normal -9.999999e-01 3.491514e-04 -3.238248e-12
    outer loop
      vertex   6.883902e+00 -9.510494e+00 -2.600204e+00
      vertex   6.885282e+00 -5.559458e+00 -3.599897e+00
      vertex   6.883902e+00 -9.510529e+00 -3.599897e+00
    endloop
  endfacet
  facet normal 3.492421e-04 9.999999e-01 -3.507449e-15
    outer loop
      vertex   8.033003e+00 -8.395186e+01 -3.599897e+00
      vertex   8.032834e+00 -8.395186e+01 -3.259990e+01
      vertex   7.426254e+00 -8.395165e+01 -3.599897e+00
    endloop
  endfacet
  facet normal 3.492421e-04 9.999999e-01 -3.248535e-15
    outer loop
      vertex   7.426254e+00 -8.395165e+01 -3.599897e+00
      vertex   8.032834e+00 -8.395186e+01 -3.259990e+01
      vertex   7.426083e+00 -8.395165e+01 -3.259990e+01
    endloop
  endfacet
  facet normal -1.214084e-08 4.239316e-12 1.000000e+00
    outer loop
      vertex   8.047951e+00 -8.195187e+01 -3.259990e+01
      vertex   7.441201e+00 -8.195166e+01 -3.259990e+01
      vertex   7.868692e+00 -8.299401e+01 -3.259990e+01
    endloop
  endfacet
  facet normal -1.214085e-08 4.235538e-12 1.000000e+00
    outer loop
      vertex   7.868692e+00 -8.299401e+01 -3.259990e+01
      vertex   7.441201e+00 -8.195166e+01 -3.259990e+01
      vertex   7.261942e+00 -8.299380e+01 -3.259990e+01
    endloop
  endfacet
  facet normal -1.214085e-08 4.247480e-12 1.000000e+00
    outer loop
      vertex   7.868692e+00 -8.299401e+01 -3.259990e+01
      vertex   7.261942e+00 -8.299380e+01 -3.259990e+01
      vertex   7.426083e+00 -8.395165e+01 -3.259990e+01
    endloop
  endfacet
  facet normal -1.214085e-08 4.247192e-12 1.000000e+00
    outer loop
      vertex   7.426083e+00 -8.395165e+01 -3.259990e+01
      vertex   8.032834e+00 -8.395186e+01 -3.259990e+01
      vertex   7.868692e+00 -8.299401e+01 -3.259990e+01
    endloop
  endfacet
  facet normal 1.214085e-08 -4.241090e-12 -1.000000e+00
    outer loop
      vertex   8.047778e+00 -8.195187e+01 -3.599897e+00
      vertex   7.868691e+00 -8.299301e+01 -3.599897e+00
      vertex   7.441027e+00 -8.195166e+01 -3.599897e+00
    endloop
  endfacet
  facet normal 1.214085e-08 -4.240099e-12 -1.000000e+00
    outer loop
      vertex   7.441027e+00 -8.195166e+01 -3.599897e+00
      vertex   7.868691e+00 -8.299301e+01 -3.599897e+00
      vertex   7.261940e+00 -8.299279e+01 -3.599897e+00
    endloop
  endfacet
  facet normal 1.214085e-08 -4.240413e-12 -1.000000e+00
    outer loop
      vertex   7.261940e+00 -8.299279e+01 -3.599897e+00
      vertex   7.868691e+00 -8.299301e+01 -3.599897e+00
      vertex   7.426254e+00 -8.395165e+01 -3.599897e+00
    endloop
  endfacet
  facet normal 1.214085e-08 -4.239012e-12 -1.000000e+00
    outer loop
      vertex   7.426254e+00 -8.395165e+01 -3.599897e+00
      vertex   7.868691e+00 -8.299301e+01 -3.599897e+00
      vertex   8.033003e+00 -8.395186e+01 -3.599897e+00
    endloop
  endfacet
  facet normal -3.492421e-04 -9.999999e-01 3.282550e-15
    outer loop
      vertex   8.047951e+00 -8.195187e+01 -3.259990e+01
      vertex   8.047778e+00 -8.195187e+01 -3.599897e+00
      vertex   7.441201e+00 -8.195166e+01 -3.259990e+01
    endloop
  endfacet
  facet normal -3.492421e-04 -9.999999e-01 4.314659e-15
    outer loop
      vertex   7.441201e+00 -8.195166e+01 -3.259990e+01
      vertex   8.047778e+00 -8.195187e+01 -3.599897e+00
      vertex   7.441027e+00 -8.195166e+01 -3.599897e+00
    endloop
  endfacet
  facet normal 1.214085e-08 -4.236858e-12 -1.000000e+00
    outer loop
      vertex   1.136718e+01 -9.561023e+00 -3.599897e+00
      vertex   6.900593e+00 -9.559464e+00 -3.599897e+00
      vertex   1.138390e+01 -9.512099e+00 -3.599897e+00
    endloop
  endfacet
  facet normal 1.214085e-08 -4.217748e-12 -1.000000e+00
    outer loop
      vertex   1.138390e+01 -9.512099e+00 -3.599897e+00
      vertex   6.900593e+00 -9.559464e+00 -3.599897e+00
      vertex   6.883902e+00 -9.510529e+00 -3.599897e+00
    endloop
  endfacet
  facet normal 1.214085e-08 -4.240344e-12 -1.000000e+00
    outer loop
      vertex   1.138390e+01 -9.512099e+00 -3.599897e+00
      vertex   6.883902e+00 -9.510529e+00 -3.599897e+00
      vertex   6.885282e+00 -5.559458e+00 -3.599897e+00
    endloop
  endfacet
  facet normal 1.214085e-08 -4.240119e-12 -1.000000e+00
    outer loop
      vertex   6.885282e+00 -5.559458e+00 -3.599897e+00
      vertex   1.138528e+01 -5.561030e+00 -3.599897e+00
      vertex   1.138390e+01 -9.512099e+00 -3.599897e+00
    endloop
  endfacet
  facet normal 3.492421e-04 9.999999e-01 -3.612890e-15
    outer loop
      vertex   1.136718e+01 -9.561023e+00 -3.599897e+00
      vertex   1.136752e+01 -9.561024e+00 -3.259990e+01
      vertex   6.900593e+00 -9.559464e+00 -3.599897e+00
    endloop
  endfacet
  facet normal 3.492421e-04 9.999999e-01 -3.523151e-15
    outer loop
      vertex   6.900593e+00 -9.559464e+00 -3.599897e+00
      vertex   1.136752e+01 -9.561024e+00 -3.259990e+01
      vertex   6.900249e+00 -9.559463e+00 -3.259990e+01
    endloop
  endfacet
  facet normal -1.214085e-08 4.250309e-12 1.000000e+00
    outer loop
      vertex   1.136752e+01 -9.561024e+00 -3.259990e+01
      vertex   1.138390e+01 -9.513107e+00 -3.259990e+01
      vertex   6.900249e+00 -9.559463e+00 -3.259990e+01
    endloop
  endfacet
  facet normal -1.214085e-08 4.296293e-12 1.000000e+00
    outer loop
      vertex   6.900249e+00 -9.559463e+00 -3.259990e+01
      vertex   1.138390e+01 -9.513107e+00 -3.259990e+01
      vertex   6.883902e+00 -9.511537e+00 -3.259990e+01
    endloop
  endfacet
  facet normal -1.214085e-08 4.238995e-12 1.000000e+00
    outer loop
      vertex   6.883902e+00 -9.511537e+00 -3.259990e+01
      vertex   1.138390e+01 -9.513107e+00 -3.259990e+01
      vertex   6.885282e+00 -5.559458e+00 -3.259990e+01
    endloop
  endfacet
  facet normal -1.214085e-08 4.240792e-12 1.000000e+00
    outer loop
      vertex   6.885282e+00 -5.559458e+00 -3.259990e+01
      vertex   1.138390e+01 -9.513107e+00 -3.259990e+01
      vertex   1.138528e+01 -5.561030e+00 -3.259990e+01
    endloop
  endfacet
  facet normal 3.492421e-04 9.999999e-01 -3.282514e-15
    outer loop
      vertex   1.090281e+01 -6.535486e+01 -3.259990e+01
      vertex   1.029606e+01 -6.535465e+01 -3.259990e+01
      vertex   1.090263e+01 -6.535486e+01 -3.599897e+00
    endloop
  endfacet
  facet normal 3.492421e-04 9.999999e-01 -3.824670e-15
    outer loop
      vertex   1.090263e+01 -6.535486e+01 -3.599897e+00
      vertex   1.029606e+01 -6.535465e+01 -3.259990e+01
      vertex   1.029589e+01 -6.535465e+01 -3.599897e+00
    endloop
  endfacet
  facet normal -1.214085e-08 4.237043e-12 1.000000e+00
    outer loop
      vertex   1.090281e+01 -6.535486e+01 -3.259990e+01
      vertex   1.106469e+01 -6.441374e+01 -3.259990e+01
      vertex   1.045794e+01 -6.441356e+01 -3.259990e+01
    endloop
  endfacet
  facet normal -1.214085e-08 4.245390e-12 1.000000e+00
    outer loop
      vertex   1.045794e+01 -6.441356e+01 -3.259990e+01
      vertex   1.106469e+01 -6.441374e+01 -3.259990e+01
      vertex   1.088323e+01 -6.335486e+01 -3.259990e+01
    endloop
  endfacet
  facet normal -1.214084e-08 4.241858e-12 1.000000e+00
    outer loop
      vertex   1.045794e+01 -6.441356e+01 -3.259990e+01
      vertex   1.088323e+01 -6.335486e+01 -3.259990e+01
      vertex   1.027648e+01 -6.335465e+01 -3.259990e+01
    endloop
  endfacet
  facet normal -1.214086e-08 4.235522e-12 1.000000e+00
    outer loop
      vertex   1.045794e+01 -6.441356e+01 -3.259990e+01
      vertex   1.029606e+01 -6.535465e+01 -3.259990e+01
      vertex   1.090281e+01 -6.535486e+01 -3.259990e+01
    endloop
  endfacet
  facet normal 1.214085e-08 -4.243440e-12 -1.000000e+00
    outer loop
      vertex   1.027665e+01 -6.335465e+01 -3.599897e+00
      vertex   1.088341e+01 -6.335486e+01 -3.599897e+00
      vertex   1.045794e+01 -6.441255e+01 -3.599897e+00
    endloop
  endfacet
  facet normal 1.214085e-08 -4.241675e-12 -1.000000e+00
    outer loop
      vertex   1.045794e+01 -6.441255e+01 -3.599897e+00
      vertex   1.088341e+01 -6.335486e+01 -3.599897e+00
      vertex   1.106469e+01 -6.441273e+01 -3.599897e+00
    endloop
  endfacet
  facet normal 1.214085e-08 -4.239010e-12 -1.000000e+00
    outer loop
      vertex   1.045794e+01 -6.441255e+01 -3.599897e+00
      vertex   1.106469e+01 -6.441273e+01 -3.599897e+00
      vertex   1.090263e+01 -6.535486e+01 -3.599897e+00
    endloop
  endfacet
  facet normal 1.214085e-08 -4.236808e-12 -1.000000e+00
    outer loop
      vertex   1.090263e+01 -6.535486e+01 -3.599897e+00
      vertex   1.029589e+01 -6.535465e+01 -3.599897e+00
      vertex   1.045794e+01 -6.441255e+01 -3.599897e+00
    endloop
  endfacet
  facet normal -3.492421e-04 -9.999999e-01 3.622783e-15
    outer loop
      vertex   1.088341e+01 -6.335486e+01 -3.599897e+00
      vertex   1.027665e+01 -6.335465e+01 -3.599897e+00
      vertex   1.088323e+01 -6.335486e+01 -3.259990e+01
    endloop
  endfacet
  facet normal -3.492421e-04 -9.999999e-01 3.441698e-15
    outer loop
      vertex   1.088323e+01 -6.335486e+01 -3.259990e+01
      vertex   1.027665e+01 -6.335465e+01 -3.599897e+00
      vertex   1.027648e+01 -6.335465e+01 -3.259990e+01
    endloop
  endfacet
  facet normal 3.492421e-04 9.999999e-01 -3.097056e-15
    outer loop
      vertex   1.089303e+01 -1.025509e+02 -3.259990e+01
      vertex   1.028629e+01 -1.025507e+02 -3.259990e+01
      vertex   1.089286e+01 -1.025509e+02 -3.599897e+00
    endloop
  endfacet
  facet normal 3.492421e-04 9.999999e-01 -3.974116e-15
    outer loop
      vertex   1.089286e+01 -1.025509e+02 -3.599897e+00
      vertex   1.028629e+01 -1.025507e+02 -3.259990e+01
      vertex   1.028612e+01 -1.025507e+02 -3.599897e+00
    endloop
  endfacet
  facet normal -1.214085e-08 4.240210e-12 1.000000e+00
    outer loop
      vertex   1.089303e+01 -1.025509e+02 -3.259990e+01
      vertex   1.105684e+01 -1.015986e+02 -3.259990e+01
      vertex   1.045602e+01 -1.015639e+02 -3.259990e+01
    endloop
  endfacet
  facet normal -1.214085e-08 4.236893e-12 1.000000e+00
    outer loop
      vertex   1.045602e+01 -1.015639e+02 -3.259990e+01
      vertex   1.105684e+01 -1.015986e+02 -3.259990e+01
      vertex   1.087731e+01 -1.005509e+02 -3.259990e+01
    endloop
  endfacet
  facet normal -1.214085e-08 4.239632e-12 1.000000e+00
    outer loop
      vertex   1.045602e+01 -1.015639e+02 -3.259990e+01
      vertex   1.087731e+01 -1.005509e+02 -3.259990e+01
      vertex   1.027055e+01 -1.005506e+02 -3.259990e+01
    endloop
  endfacet
  facet normal -1.214096e-08 4.219176e-12 1.000000e+00
    outer loop
      vertex   1.027055e+01 -1.005506e+02 -3.259990e+01
      vertex   1.044452e+01 -1.015658e+02 -3.259990e+01
      vertex   1.045602e+01 -1.015639e+02 -3.259990e+01
    endloop
  endfacet
  facet normal -1.214085e-08 4.239362e-12 1.000000e+00
    outer loop
      vertex   1.045602e+01 -1.015639e+02 -3.259990e+01
      vertex   1.028629e+01 -1.025507e+02 -3.259990e+01
      vertex   1.089303e+01 -1.025509e+02 -3.259990e+01
    endloop
  endfacet
  facet normal 1.214085e-08 -4.239470e-12 -1.000000e+00
    outer loop
      vertex   1.027072e+01 -1.005506e+02 -3.599897e+00
      vertex   1.087747e+01 -1.005509e+02 -3.599897e+00
      vertex   1.045602e+01 -1.015629e+02 -3.599897e+00
    endloop
  endfacet
  facet normal 1.214085e-08 -4.239924e-12 -1.000000e+00
    outer loop
      vertex   1.045602e+01 -1.015629e+02 -3.599897e+00
      vertex   1.087747e+01 -1.005509e+02 -3.599897e+00
      vertex   1.105684e+01 -1.015976e+02 -3.599897e+00
    endloop
  endfacet
  facet normal 1.214085e-08 -4.240593e-12 -1.000000e+00
    outer loop
      vertex   1.045602e+01 -1.015629e+02 -3.599897e+00
      vertex   1.105684e+01 -1.015976e+02 -3.599897e+00
      vertex   1.089286e+01 -1.025509e+02 -3.599897e+00
    endloop
  endfacet
  facet normal 1.214085e-08 -4.240901e-12 -1.000000e+00
    outer loop
      vertex   1.089286e+01 -1.025509e+02 -3.599897e+00
      vertex   1.028612e+01 -1.025507e+02 -3.599897e+00
      vertex   1.045602e+01 -1.015629e+02 -3.599897e+00
    endloop
  endfacet
  facet normal 1.214093e-08 -4.226002e-12 -1.000000e+00
    outer loop
      vertex   1.045602e+01 -1.015629e+02 -3.599897e+00
      vertex   1.044452e+01 -1.015649e+02 -3.599897e+00
      vertex   1.027072e+01 -1.005506e+02 -3.599897e+00
    endloop
  endfacet
  facet normal -3.492421e-04 -9.999999e-01 3.507513e-15
    outer loop
      vertex   1.087747e+01 -1.005509e+02 -3.599897e+00
      vertex   1.027072e+01 -1.005506e+02 -3.599897e+00
      vertex   1.087731e+01 -1.005509e+02 -3.259990e+01
    endloop
  endfacet
  facet normal -3.492421e-04 -9.999999e-01 3.738502e-15
    outer loop
      vertex   1.087731e+01 -1.005509e+02 -3.259990e+01
      vertex   1.027072e+01 -1.005506e+02 -3.599897e+00
      vertex   1.027055e+01 -1.005506e+02 -3.259990e+01
    endloop
  endfacet
  facet normal 3.492421e-04 9.999999e-01 -3.544106e-15
    outer loop
      vertex   1.091050e+01 -2.815887e+01 -3.259990e+01
      vertex   1.030376e+01 -2.815865e+01 -3.259990e+01
      vertex   1.091033e+01 -2.815887e+01 -3.599897e+00
    endloop
  endfacet
  facet normal 3.492421e-04 9.999999e-01 -3.788437e-15
    outer loop
      vertex   1.091033e+01 -2.815887e+01 -3.599897e+00
      vertex   1.030376e+01 -2.815865e+01 -3.259990e+01
      vertex   1.030358e+01 -2.815865e+01 -3.599897e+00
    endloop
  endfacet
  facet normal -1.214085e-08 4.240209e-12 1.000000e+00
    outer loop
      vertex   1.091050e+01 -2.815887e+01 -3.259990e+01
      vertex   1.107638e+01 -2.719451e+01 -3.259990e+01
      vertex   1.046964e+01 -2.719431e+01 -3.259990e+01
    endloop
  endfacet
  facet normal -1.214085e-08 4.235455e-12 1.000000e+00
    outer loop
      vertex   1.046964e+01 -2.719431e+01 -3.259990e+01
      vertex   1.107638e+01 -2.719451e+01 -3.259990e+01
      vertex   1.089891e+01 -2.615886e+01 -3.259990e+01
    endloop
  endfacet
  facet normal -1.214085e-08 4.238611e-12 1.000000e+00
    outer loop
      vertex   1.046964e+01 -2.719431e+01 -3.259990e+01
      vertex   1.089891e+01 -2.615886e+01 -3.259990e+01
      vertex   1.029216e+01 -2.615865e+01 -3.259990e+01
    endloop
  endfacet
  facet normal -1.214086e-08 4.234918e-12 1.000000e+00
    outer loop
      vertex   1.046964e+01 -2.719431e+01 -3.259990e+01
      vertex   1.030376e+01 -2.815865e+01 -3.259990e+01
      vertex   1.091050e+01 -2.815887e+01 -3.259990e+01
    endloop
  endfacet
  facet normal 1.214085e-08 -4.245767e-12 -1.000000e+00
    outer loop
      vertex   1.029233e+01 -2.615865e+01 -3.599897e+00
      vertex   1.089908e+01 -2.615886e+01 -3.599897e+00
      vertex   1.046964e+01 -2.719330e+01 -3.599897e+00
    endloop
  endfacet
  facet normal 1.214084e-08 -4.241707e-12 -1.000000e+00
    outer loop
      vertex   1.046964e+01 -2.719330e+01 -3.599897e+00
      vertex   1.089908e+01 -2.615886e+01 -3.599897e+00
      vertex   1.107638e+01 -2.719350e+01 -3.599897e+00
    endloop
  endfacet
  facet normal 1.214084e-08 -4.238762e-12 -1.000000e+00
    outer loop
      vertex   1.046964e+01 -2.719330e+01 -3.599897e+00
      vertex   1.107638e+01 -2.719350e+01 -3.599897e+00
      vertex   1.091033e+01 -2.815887e+01 -3.599897e+00
    endloop
  endfacet
  facet normal 1.214085e-08 -4.234132e-12 -1.000000e+00
    outer loop
      vertex   1.091033e+01 -2.815887e+01 -3.599897e+00
      vertex   1.030358e+01 -2.815865e+01 -3.599897e+00
      vertex   1.046964e+01 -2.719330e+01 -3.599897e+00
    endloop
  endfacet
  facet normal -3.492421e-04 -9.999999e-01 3.681736e-15
    outer loop
      vertex   1.089908e+01 -2.615886e+01 -3.599897e+00
      vertex   1.029233e+01 -2.615865e+01 -3.599897e+00
      vertex   1.089891e+01 -2.615886e+01 -3.259990e+01
    endloop
  endfacet
  facet normal -3.492421e-04 -9.999999e-01 3.570536e-15
    outer loop
      vertex   1.089891e+01 -2.615886e+01 -3.259990e+01
      vertex   1.029233e+01 -2.615865e+01 -3.599897e+00
      vertex   1.029216e+01 -2.615865e+01 -3.259990e+01
    endloop
  endfacet
  facet normal -1.214086e-08 4.238484e-12 1.000000e+00
    outer loop
      vertex   8.055644e+00 -4.475587e+01 -3.259990e+01
      vertex   7.448899e+00 -4.475566e+01 -3.259990e+01
      vertex   7.875501e+00 -4.580315e+01 -3.259990e+01
    endloop
  endfacet
  facet normal -1.214085e-08 4.242713e-12 1.000000e+00
    outer loop
      vertex   7.875501e+00 -4.580315e+01 -3.259990e+01
      vertex   7.448899e+00 -4.475566e+01 -3.259990e+01
      vertex   7.268751e+00 -4.580296e+01 -3.259990e+01
    endloop
  endfacet
  facet normal -1.214085e-08 4.243659e-12 1.000000e+00
    outer loop
      vertex   7.875501e+00 -4.580315e+01 -3.259990e+01
      vertex   7.268751e+00 -4.580296e+01 -3.259990e+01
      vertex   7.432008e+00 -4.675565e+01 -3.259990e+01
    endloop
  endfacet
  facet normal -1.214085e-08 4.244347e-12 1.000000e+00
    outer loop
      vertex   7.432008e+00 -4.675565e+01 -3.259990e+01
      vertex   8.038761e+00 -4.675586e+01 -3.259990e+01
      vertex   7.875501e+00 -4.580315e+01 -3.259990e+01
    endloop
  endfacet
  facet normal 3.492421e-04 9.999999e-01 -3.377756e-15
    outer loop
      vertex   8.038935e+00 -4.675586e+01 -3.599897e+00
      vertex   8.038761e+00 -4.675586e+01 -3.259990e+01
      vertex   7.432181e+00 -4.675565e+01 -3.599897e+00
    endloop
  endfacet
  facet normal 3.492421e-04 9.999999e-01 -3.686656e-15
    outer loop
      vertex   7.432181e+00 -4.675565e+01 -3.599897e+00
      vertex   8.038761e+00 -4.675586e+01 -3.259990e+01
      vertex   7.432008e+00 -4.675565e+01 -3.259990e+01
    endloop
  endfacet
  facet normal 1.214085e-08 -4.240579e-12 -1.000000e+00
    outer loop
      vertex   8.055471e+00 -4.475587e+01 -3.599897e+00
      vertex   7.875501e+00 -4.580214e+01 -3.599897e+00
      vertex   7.448725e+00 -4.475566e+01 -3.599897e+00
    endloop
  endfacet
  facet normal 1.214085e-08 -4.243354e-12 -1.000000e+00
    outer loop
      vertex   7.448725e+00 -4.475566e+01 -3.599897e+00
      vertex   7.875501e+00 -4.580214e+01 -3.599897e+00
      vertex   7.268751e+00 -4.580195e+01 -3.599897e+00
    endloop
  endfacet
  facet normal 1.214085e-08 -4.236788e-12 -1.000000e+00
    outer loop
      vertex   7.268751e+00 -4.580195e+01 -3.599897e+00
      vertex   7.875501e+00 -4.580214e+01 -3.599897e+00
      vertex   7.432181e+00 -4.675565e+01 -3.599897e+00
    endloop
  endfacet
  facet normal 1.214085e-08 -4.239480e-12 -1.000000e+00
    outer loop
      vertex   7.432181e+00 -4.675565e+01 -3.599897e+00
      vertex   7.875501e+00 -4.580214e+01 -3.599897e+00
      vertex   8.038935e+00 -4.675586e+01 -3.599897e+00
    endloop
  endfacet
  facet normal -3.492421e-04 -9.999999e-01 3.789045e-15
    outer loop
      vertex   8.055644e+00 -4.475587e+01 -3.259990e+01
      vertex   8.055471e+00 -4.475587e+01 -3.599897e+00
      vertex   7.448899e+00 -4.475566e+01 -3.259990e+01
    endloop
  endfacet
  facet normal -3.492421e-04 -9.999999e-01 3.543455e-15
    outer loop
      vertex   7.448899e+00 -4.475566e+01 -3.259990e+01
      vertex   8.055471e+00 -4.475587e+01 -3.599897e+00
      vertex   7.448725e+00 -4.475566e+01 -3.599897e+00
    endloop
  endfacet
  facet normal -1.214085e-08 4.242829e-12 1.000000e+00
    outer loop
      vertex   7.431434e+00 -1.191477e+02 -3.259990e+01
      vertex   7.256210e+00 -1.201663e+02 -3.259990e+01
      vertex   7.864283e+00 -1.201588e+02 -3.259990e+01
    endloop
  endfacet
  facet normal -1.214085e-08 4.239697e-12 1.000000e+00
    outer loop
      vertex   7.864283e+00 -1.201588e+02 -3.259990e+01
      vertex   7.256210e+00 -1.201663e+02 -3.259990e+01
      vertex   7.424371e+00 -1.211477e+02 -3.259990e+01
    endloop
  endfacet
  facet normal -1.214085e-08 4.239444e-12 1.000000e+00
    outer loop
      vertex   7.864283e+00 -1.201588e+02 -3.259990e+01
      vertex   7.424371e+00 -1.211477e+02 -3.259990e+01
      vertex   8.033772e+00 -1.211479e+02 -3.259990e+01
    endloop
  endfacet
  facet normal -1.214086e-08 4.236983e-12 1.000000e+00
    outer loop
      vertex   7.864283e+00 -1.201588e+02 -3.259990e+01
      vertex   8.038176e+00 -1.191479e+02 -3.259990e+01
      vertex   7.431434e+00 -1.191477e+02 -3.259990e+01
    endloop
  endfacet
  facet normal 3.492421e-04 9.999999e-01 -3.738683e-15
    outer loop
      vertex   7.424371e+00 -1.211477e+02 -3.259990e+01
      vertex   7.424541e+00 -1.211477e+02 -3.599897e+00
      vertex   8.033772e+00 -1.211479e+02 -3.259990e+01
    endloop
  endfacet
  facet normal 3.492421e-04 9.999999e-01 -3.997639e-15
    outer loop
      vertex   8.033772e+00 -1.211479e+02 -3.259990e+01
      vertex   7.424541e+00 -1.211477e+02 -3.599897e+00
      vertex   8.033941e+00 -1.211479e+02 -3.599897e+00
    endloop
  endfacet
  facet normal -3.492421e-04 -9.999999e-01 3.974178e-15
    outer loop
      vertex   7.431262e+00 -1.191477e+02 -3.599897e+00
      vertex   7.431434e+00 -1.191477e+02 -3.259990e+01
      vertex   8.038002e+00 -1.191479e+02 -3.599897e+00
    endloop
  endfacet
  facet normal -3.492421e-04 -9.999999e-01 3.586998e-15
    outer loop
      vertex   8.038002e+00 -1.191479e+02 -3.599897e+00
      vertex   7.431434e+00 -1.191477e+02 -3.259990e+01
      vertex   8.038176e+00 -1.191479e+02 -3.259990e+01
    endloop
  endfacet
  facet normal 1.214085e-08 -4.239060e-12 -1.000000e+00
    outer loop
      vertex   8.033941e+00 -1.211479e+02 -3.599897e+00
      vertex   7.424541e+00 -1.211477e+02 -3.599897e+00
      vertex   7.864281e+00 -1.201578e+02 -3.599897e+00
    endloop
  endfacet
  facet normal 1.214086e-08 -4.240314e-12 -1.000000e+00
    outer loop
      vertex   7.864281e+00 -1.201578e+02 -3.599897e+00
      vertex   7.424541e+00 -1.211477e+02 -3.599897e+00
      vertex   7.256209e+00 -1.201653e+02 -3.599897e+00
    endloop
  endfacet
  facet normal 1.214086e-08 -4.239639e-12 -1.000000e+00
    outer loop
      vertex   7.864281e+00 -1.201578e+02 -3.599897e+00
      vertex   7.256209e+00 -1.201653e+02 -3.599897e+00
      vertex   7.431262e+00 -1.191477e+02 -3.599897e+00
    endloop
  endfacet
  facet normal 1.214085e-08 -4.240958e-12 -1.000000e+00
    outer loop
      vertex   7.431262e+00 -1.191477e+02 -3.599897e+00
      vertex   8.038002e+00 -1.191479e+02 -3.599897e+00
      vertex   7.864281e+00 -1.201578e+02 -3.599897e+00
    endloop
  endfacet
  facet normal 9.999999e-01 -3.491513e-04 3.255214e-12
    outer loop
      vertex   1.138390e+01 -9.513107e+00 -3.259990e+01
      vertex   1.138390e+01 -9.513149e+00 -3.379996e+01
      vertex   1.138528e+01 -5.561030e+00 -3.259990e+01
    endloop
  endfacet
  facet normal 9.999999e-01 -3.490583e-04 -3.063012e-07
    outer loop
      vertex   1.138528e+01 -5.561030e+00 -3.259990e+01
      vertex   1.138390e+01 -9.513149e+00 -3.379996e+01
      vertex   1.138669e+01 -1.513150e+00 -3.380024e+01
    endloop
  endfacet
  facet normal 9.999999e-01 -3.489675e-04 -3.156536e-12
    outer loop
      vertex   1.138528e+01 -5.561030e+00 -3.259990e+01
      vertex   1.138669e+01 -1.513150e+00 -3.380024e+01
      vertex   1.138669e+01 -1.512065e+00 -2.600482e+00
    endloop
  endfacet
  facet normal 9.999999e-01 -3.489675e-04 -1.212676e-16
    outer loop
      vertex   1.138528e+01 -5.561030e+00 -3.259990e+01
      vertex   1.138669e+01 -1.512065e+00 -2.600482e+00
      vertex   1.138528e+01 -5.561030e+00 -3.599897e+00
    endloop
  endfacet
  facet normal 9.999999e-01 -3.490583e-04 3.677856e-07
    outer loop
      vertex   1.138528e+01 -5.561030e+00 -3.599897e+00
      vertex   1.138669e+01 -1.512065e+00 -2.600482e+00
      vertex   1.138390e+01 -9.512065e+00 -2.600204e+00
    endloop
  endfacet
  facet normal 9.999999e-01 -3.491514e-04 3.225217e-12
    outer loop
      vertex   1.138528e+01 -5.561030e+00 -3.599897e+00
      vertex   1.138390e+01 -9.512065e+00 -2.600204e+00
      vertex   1.138390e+01 -9.512099e+00 -3.599897e+00
    endloop
  endfacet
  facet normal -9.464588e-01 -3.228246e-01 1.123397e-05
    outer loop
      vertex   6.883902e+00 -9.510529e+00 -3.599897e+00
      vertex   6.900593e+00 -9.559464e+00 -3.599897e+00
      vertex   6.883902e+00 -9.510494e+00 -2.600204e+00
    endloop
  endfacet
  facet normal -9.464588e-01 -3.228246e-01 1.123399e-05
    outer loop
      vertex   6.883902e+00 -9.510494e+00 -2.600204e+00
      vertex   6.900593e+00 -9.559464e+00 -3.599897e+00
      vertex   8.000358e+00 -1.278373e+01 -2.600090e+00
    endloop
  endfacet
  facet normal -9.464588e-01 -3.228246e-01 1.123397e-05
    outer loop
      vertex   8.000358e+00 -1.278373e+01 -2.600090e+00
      vertex   6.900593e+00 -9.559464e+00 -3.599897e+00
      vertex   6.900249e+00 -9.559463e+00 -3.259990e+01
    endloop
  endfacet
  facet normal -9.464588e-01 -3.228246e-01 1.123408e-05
    outer loop
      vertex   8.000358e+00 -1.278373e+01 -2.600090e+00
      vertex   6.900249e+00 -9.559463e+00 -3.259990e+01
      vertex   8.000358e+00 -1.278481e+01 -3.379964e+01
    endloop
  endfacet
  facet normal -9.464606e-01 -3.228192e-01 -4.932006e-06
    outer loop
      vertex   8.000358e+00 -1.278481e+01 -3.379964e+01
      vertex   6.900249e+00 -9.559463e+00 -3.259990e+01
      vertex   8.000358e+00 -1.278481e+01 -3.379985e+01
    endloop
  endfacet
  facet normal -9.464588e-01 -3.228246e-01 1.123397e-05
    outer loop
      vertex   8.000358e+00 -1.278481e+01 -3.379985e+01
      vertex   6.900249e+00 -9.559463e+00 -3.259990e+01
      vertex   6.883902e+00 -9.511578e+00 -3.379996e+01
    endloop
  endfacet
  facet normal -9.464588e-01 -3.228246e-01 1.123397e-05
    outer loop
      vertex   6.883902e+00 -9.511578e+00 -3.379996e+01
      vertex   6.900249e+00 -9.559463e+00 -3.259990e+01
      vertex   6.883902e+00 -9.511537e+00 -3.259990e+01
    endloop
  endfacet
  facet normal 9.856328e-01 1.689020e-01 -5.755898e-06
    outer loop
      vertex   7.868692e+00 -8.299401e+01 -3.259990e+01
      vertex   8.032834e+00 -8.395186e+01 -3.259990e+01
      vertex   7.868693e+00 -8.299405e+01 -3.379964e+01
    endloop
  endfacet
  facet normal 9.856328e-01 1.689020e-01 -5.755898e-06
    outer loop
      vertex   7.868693e+00 -8.299405e+01 -3.379964e+01
      vertex   8.032834e+00 -8.395186e+01 -3.259990e+01
      vertex   1.087731e+01 -1.005509e+02 -3.259990e+01
    endloop
  endfacet
  facet normal 9.856328e-01 1.689020e-01 -5.755898e-06
    outer loop
      vertex   7.868693e+00 -8.299405e+01 -3.379964e+01
      vertex   1.087731e+01 -1.005509e+02 -3.259990e+01
      vertex   1.105684e+01 -1.015986e+02 -3.379964e+01
    endloop
  endfacet
  facet normal 9.856328e-01 1.689020e-01 -5.755898e-06
    outer loop
      vertex   1.105684e+01 -1.015986e+02 -3.379964e+01
      vertex   1.087731e+01 -1.005509e+02 -3.259990e+01
      vertex   1.105684e+01 -1.015986e+02 -3.259990e+01
    endloop
  endfacet
  facet normal 9.856328e-01 1.689020e-01 -5.754460e-06
    outer loop
      vertex   8.032834e+00 -8.395186e+01 -3.259990e+01
      vertex   8.033003e+00 -8.395186e+01 -3.599897e+00
      vertex   1.087731e+01 -1.005509e+02 -3.259990e+01
    endloop
  endfacet
  facet normal 9.856328e-01 1.689020e-01 -5.754460e-06
    outer loop
      vertex   1.087731e+01 -1.005509e+02 -3.259990e+01
      vertex   8.033003e+00 -8.395186e+01 -3.599897e+00
      vertex   1.087747e+01 -1.005509e+02 -3.599897e+00
    endloop
  endfacet
  facet normal 9.856328e-01 1.689020e-01 -5.754460e-06
    outer loop
      vertex   1.087747e+01 -1.005509e+02 -3.599897e+00
      vertex   8.033003e+00 -8.395186e+01 -3.599897e+00
      vertex   7.868691e+00 -8.299298e+01 -2.599937e+00
    endloop
  endfacet
  facet normal 9.856328e-01 1.689020e-01 -5.754460e-06
    outer loop
      vertex   1.087747e+01 -1.005509e+02 -3.599897e+00
      vertex   7.868691e+00 -8.299298e+01 -2.599937e+00
      vertex   1.105684e+01 -1.015975e+02 -2.599937e+00
    endloop
  endfacet
  facet normal 9.856328e-01 1.689020e-01 -5.754460e-06
    outer loop
      vertex   8.033003e+00 -8.395186e+01 -3.599897e+00
      vertex   7.868691e+00 -8.299301e+01 -3.599897e+00
      vertex   7.868691e+00 -8.299298e+01 -2.599937e+00
    endloop
  endfacet
  facet normal 9.856328e-01 1.689020e-01 -5.754460e-06
    outer loop
      vertex   1.105684e+01 -1.015975e+02 -2.599937e+00
      vertex   1.105684e+01 -1.015976e+02 -3.599897e+00
      vertex   1.087747e+01 -1.005509e+02 -3.599897e+00
    endloop
  endfacet
  facet normal -9.856329e-01 -1.689018e-01 5.793501e-06
    outer loop
      vertex   7.261940e+00 -8.299279e+01 -3.599897e+00
      vertex   7.426254e+00 -8.395165e+01 -3.599897e+00
      vertex   7.261940e+00 -8.299276e+01 -2.599937e+00
    endloop
  endfacet
  facet normal -9.856329e-01 -1.689018e-01 5.793501e-06
    outer loop
      vertex   7.261940e+00 -8.299276e+01 -2.599937e+00
      vertex   7.426254e+00 -8.395165e+01 -3.599897e+00
      vertex   1.027072e+01 -1.005506e+02 -3.599897e+00
    endloop
  endfacet
  facet normal -9.856329e-01 -1.689018e-01 5.793501e-06
    outer loop
      vertex   7.261940e+00 -8.299276e+01 -2.599937e+00
      vertex   1.027072e+01 -1.005506e+02 -3.599897e+00
      vertex   1.044452e+01 -1.015648e+02 -2.599937e+00
    endloop
  endfacet
  facet normal -9.856329e-01 -1.689018e-01 5.793501e-06
    outer loop
      vertex   1.044452e+01 -1.015648e+02 -2.599937e+00
      vertex   1.027072e+01 -1.005506e+02 -3.599897e+00
      vertex   1.044452e+01 -1.015649e+02 -3.599897e+00
    endloop
  endfacet
  facet normal -9.856329e-01 -1.689018e-01 5.793501e-06
    outer loop
      vertex   1.027072e+01 -1.005506e+02 -3.599897e+00
      vertex   7.426254e+00 -8.395165e+01 -3.599897e+00
      vertex   1.027055e+01 -1.005506e+02 -3.259990e+01
    endloop
  endfacet
  facet normal -9.856329e-01 -1.689018e-01 5.793501e-06
    outer loop
      vertex   1.027055e+01 -1.005506e+02 -3.259990e+01
      vertex   7.426254e+00 -8.395165e+01 -3.599897e+00
      vertex   7.426083e+00 -8.395165e+01 -3.259990e+01
    endloop
  endfacet
  facet normal -9.856329e-01 -1.689018e-01 5.794949e-06
    outer loop
      vertex   1.027055e+01 -1.005506e+02 -3.259990e+01
      vertex   7.426083e+00 -8.395165e+01 -3.259990e+01
      vertex   7.261942e+00 -8.299384e+01 -3.379964e+01
    endloop
  endfacet
  facet normal -9.856329e-01 -1.689018e-01 5.794949e-06
    outer loop
      vertex   7.261942e+00 -8.299384e+01 -3.379964e+01
      vertex   7.426083e+00 -8.395165e+01 -3.259990e+01
      vertex   7.261942e+00 -8.299380e+01 -3.259990e+01
    endloop
  endfacet
  facet normal -9.856329e-01 -1.689018e-01 5.794949e-06
    outer loop
      vertex   7.261942e+00 -8.299384e+01 -3.379964e+01
      vertex   1.044452e+01 -1.015659e+02 -3.379964e+01
      vertex   1.027055e+01 -1.005506e+02 -3.259990e+01
    endloop
  endfacet
  facet normal -9.856329e-01 -1.689018e-01 5.794949e-06
    outer loop
      vertex   1.027055e+01 -1.005506e+02 -3.259990e+01
      vertex   1.044452e+01 -1.015659e+02 -3.379964e+01
      vertex   1.044452e+01 -1.015658e+02 -3.259990e+01
    endloop
  endfacet
  facet normal 1.689079e-01 -9.856318e-01 3.373103e-05
    outer loop
      vertex   1.044452e+01 -1.015658e+02 -3.259990e+01
      vertex   1.044452e+01 -1.015659e+02 -3.379964e+01
      vertex   1.045602e+01 -1.015639e+02 -3.259990e+01
    endloop
  endfacet
  facet normal 1.689079e-01 -9.856318e-01 3.373103e-05
    outer loop
      vertex   1.045602e+01 -1.015639e+02 -3.259990e+01
      vertex   1.044452e+01 -1.015659e+02 -3.379964e+01
      vertex   1.045602e+01 -1.015639e+02 -3.379964e+01
    endloop
  endfacet
  facet normal 9.855266e-01 -1.695209e-01 5.885653e-06
    outer loop
      vertex   1.107638e+01 -2.719451e+01 -3.259990e+01
      vertex   1.091050e+01 -2.815887e+01 -3.259990e+01
      vertex   1.107638e+01 -2.719455e+01 -3.379964e+01
    endloop
  endfacet
  facet normal 9.855266e-01 -1.695209e-01 5.885653e-06
    outer loop
      vertex   1.107638e+01 -2.719455e+01 -3.379964e+01
      vertex   1.091050e+01 -2.815887e+01 -3.259990e+01
      vertex   8.055644e+00 -4.475587e+01 -3.259990e+01
    endloop
  endfacet
  facet normal 9.855266e-01 -1.695209e-01 5.885653e-06
    outer loop
      vertex   1.107638e+01 -2.719455e+01 -3.379964e+01
      vertex   8.055644e+00 -4.475587e+01 -3.259990e+01
      vertex   7.875501e+00 -4.580319e+01 -3.379964e+01
    endloop
  endfacet
  facet normal 9.855266e-01 -1.695209e-01 5.885653e-06
    outer loop
      vertex   7.875501e+00 -4.580319e+01 -3.379964e+01
      vertex   8.055644e+00 -4.475587e+01 -3.259990e+01
      vertex   7.875501e+00 -4.580315e+01 -3.259990e+01
    endloop
  endfacet
  facet normal 9.855266e-01 -1.695209e-01 5.884183e-06
    outer loop
      vertex   1.091050e+01 -2.815887e+01 -3.259990e+01
      vertex   1.091033e+01 -2.815887e+01 -3.599897e+00
      vertex   8.055644e+00 -4.475587e+01 -3.259990e+01
    endloop
  endfacet
  facet normal 9.855266e-01 -1.695209e-01 5.884183e-06
    outer loop
      vertex   8.055644e+00 -4.475587e+01 -3.259990e+01
      vertex   1.091033e+01 -2.815887e+01 -3.599897e+00
      vertex   8.055471e+00 -4.475587e+01 -3.599897e+00
    endloop
  endfacet
  facet normal 9.855266e-01 -1.695209e-01 5.884183e-06
    outer loop
      vertex   8.055471e+00 -4.475587e+01 -3.599897e+00
      vertex   1.091033e+01 -2.815887e+01 -3.599897e+00
      vertex   1.107638e+01 -2.719346e+01 -2.599937e+00
    endloop
  endfacet
  facet normal 9.855266e-01 -1.695209e-01 5.884183e-06
    outer loop
      vertex   8.055471e+00 -4.475587e+01 -3.599897e+00
      vertex   1.107638e+01 -2.719346e+01 -2.599937e+00
      vertex   7.875501e+00 -4.580211e+01 -2.599937e+00
    endloop
  endfacet
  facet normal 9.855266e-01 -1.695209e-01 5.884183e-06
    outer loop
      vertex   1.091033e+01 -2.815887e+01 -3.599897e+00
      vertex   1.107638e+01 -2.719350e+01 -3.599897e+00
      vertex   1.107638e+01 -2.719346e+01 -2.599937e+00
    endloop
  endfacet
  facet normal 9.855266e-01 -1.695209e-01 5.884183e-06
    outer loop
      vertex   7.875501e+00 -4.580211e+01 -2.599937e+00
      vertex   7.875501e+00 -4.580214e+01 -3.599897e+00
      vertex   8.055471e+00 -4.475587e+01 -3.599897e+00
    endloop
  endfacet
  facet normal -9.855266e-01 1.695209e-01 -5.903780e-06
    outer loop
      vertex   1.046964e+01 -2.719330e+01 -3.599897e+00
      vertex   1.030358e+01 -2.815865e+01 -3.599897e+00
      vertex   1.046964e+01 -2.719326e+01 -2.599937e+00
    endloop
  endfacet
  facet normal -9.855266e-01 1.695209e-01 -5.903780e-06
    outer loop
      vertex   1.046964e+01 -2.719326e+01 -2.599937e+00
      vertex   1.030358e+01 -2.815865e+01 -3.599897e+00
      vertex   7.448725e+00 -4.475566e+01 -3.599897e+00
    endloop
  endfacet
  facet normal -9.855266e-01 1.695209e-01 -5.903780e-06
    outer loop
      vertex   1.046964e+01 -2.719326e+01 -2.599937e+00
      vertex   7.448725e+00 -4.475566e+01 -3.599897e+00
      vertex   7.268751e+00 -4.580192e+01 -2.599937e+00
    endloop
  endfacet
  facet normal -9.855266e-01 1.695209e-01 -5.903780e-06
    outer loop
      vertex   7.268751e+00 -4.580192e+01 -2.599937e+00
      vertex   7.448725e+00 -4.475566e+01 -3.599897e+00
      vertex   7.268751e+00 -4.580195e+01 -3.599897e+00
    endloop
  endfacet
  facet normal -9.855266e-01 1.695209e-01 -5.903780e-06
    outer loop
      vertex   7.448725e+00 -4.475566e+01 -3.599897e+00
      vertex   1.030358e+01 -2.815865e+01 -3.599897e+00
      vertex   7.448899e+00 -4.475566e+01 -3.259990e+01
    endloop
  endfacet
  facet normal -9.855266e-01 1.695209e-01 -5.903780e-06
    outer loop
      vertex   7.448899e+00 -4.475566e+01 -3.259990e+01
      vertex   1.030358e+01 -2.815865e+01 -3.599897e+00
      vertex   1.030376e+01 -2.815865e+01 -3.259990e+01
    endloop
  endfacet
  facet normal -9.855266e-01 1.695209e-01 -5.905255e-06
    outer loop
      vertex   7.448899e+00 -4.475566e+01 -3.259990e+01
      vertex   1.030376e+01 -2.815865e+01 -3.259990e+01
      vertex   1.046964e+01 -2.719435e+01 -3.379964e+01
    endloop
  endfacet
  facet normal -9.855266e-01 1.695209e-01 -5.905255e-06
    outer loop
      vertex   1.046964e+01 -2.719435e+01 -3.379964e+01
      vertex   1.030376e+01 -2.815865e+01 -3.259990e+01
      vertex   1.046964e+01 -2.719431e+01 -3.259990e+01
    endloop
  endfacet
  facet normal -9.855266e-01 1.695209e-01 -5.905255e-06
    outer loop
      vertex   1.046964e+01 -2.719435e+01 -3.379964e+01
      vertex   7.268751e+00 -4.580300e+01 -3.379964e+01
      vertex   7.448899e+00 -4.475566e+01 -3.259990e+01
    endloop
  endfacet
  facet normal -9.855266e-01 1.695209e-01 -5.905255e-06
    outer loop
      vertex   7.448899e+00 -4.475566e+01 -3.259990e+01
      vertex   7.268751e+00 -4.580300e+01 -3.379964e+01
      vertex   7.268751e+00 -4.580296e+01 -3.259990e+01
    endloop
  endfacet
  facet normal -9.856329e-01 -1.689018e-01 5.793501e-06
    outer loop
      vertex   7.256209e+00 -1.201653e+02 -3.599897e+00
      vertex   7.424541e+00 -1.211477e+02 -3.599897e+00
      vertex   7.256209e+00 -1.201653e+02 -2.599937e+00
    endloop
  endfacet
  facet normal -9.856329e-01 -1.689018e-01 5.793501e-06
    outer loop
      vertex   7.256209e+00 -1.201653e+02 -2.599937e+00
      vertex   7.424541e+00 -1.211477e+02 -3.599897e+00
      vertex   1.044195e+01 -1.387558e+02 -2.599937e+00
    endloop
  endfacet
  facet normal -9.856329e-01 -1.689018e-01 5.793501e-06
    outer loop
      vertex   1.044195e+01 -1.387558e+02 -2.599937e+00
      vertex   7.424541e+00 -1.211477e+02 -3.599897e+00
      vertex   7.424371e+00 -1.211477e+02 -3.259990e+01
    endloop
  endfacet
  facet normal -9.856329e-01 -1.689018e-01 5.793557e-06
    outer loop
      vertex   1.044195e+01 -1.387558e+02 -2.599937e+00
      vertex   7.424371e+00 -1.211477e+02 -3.259990e+01
      vertex   1.044194e+01 -1.387569e+02 -3.379964e+01
    endloop
  endfacet
  facet normal -9.856329e-01 -1.689018e-01 5.794949e-06
    outer loop
      vertex   1.044194e+01 -1.387569e+02 -3.379964e+01
      vertex   7.424371e+00 -1.211477e+02 -3.259990e+01
      vertex   7.256210e+00 -1.201664e+02 -3.379964e+01
    endloop
  endfacet
  facet normal -9.856329e-01 -1.689018e-01 5.794949e-06
    outer loop
      vertex   7.256210e+00 -1.201664e+02 -3.379964e+01
      vertex   7.424371e+00 -1.211477e+02 -3.259990e+01
      vertex   7.256210e+00 -1.201663e+02 -3.259990e+01
    endloop
  endfacet
  facet normal -9.855266e-01 1.695207e-01 -5.864578e-06
    outer loop
      vertex   1.045602e+01 -1.015629e+02 -3.599897e+00
      vertex   1.028612e+01 -1.025507e+02 -3.599897e+00
      vertex   1.045602e+01 -1.015629e+02 -2.599937e+00
    endloop
  endfacet
  facet normal -9.855266e-01 1.695207e-01 -5.864578e-06
    outer loop
      vertex   1.045602e+01 -1.015629e+02 -2.599937e+00
      vertex   1.028612e+01 -1.025507e+02 -3.599897e+00
      vertex   7.431262e+00 -1.191477e+02 -3.599897e+00
    endloop
  endfacet
  facet normal -9.855266e-01 1.695207e-01 -5.864578e-06
    outer loop
      vertex   1.045602e+01 -1.015629e+02 -2.599937e+00
      vertex   7.431262e+00 -1.191477e+02 -3.599897e+00
      vertex   7.256209e+00 -1.201653e+02 -2.599937e+00
    endloop
  endfacet
  facet normal -9.855266e-01 1.695207e-01 -5.864578e-06
    outer loop
      vertex   7.256209e+00 -1.201653e+02 -2.599937e+00
      vertex   7.431262e+00 -1.191477e+02 -3.599897e+00
      vertex   7.256209e+00 -1.201653e+02 -3.599897e+00
    endloop
  endfacet
  facet normal -9.855266e-01 1.695207e-01 -5.864578e-06
    outer loop
      vertex   7.431262e+00 -1.191477e+02 -3.599897e+00
      vertex   1.028612e+01 -1.025507e+02 -3.599897e+00
      vertex   7.431434e+00 -1.191477e+02 -3.259990e+01
    endloop
  endfacet
  facet normal -9.855266e-01 1.695207e-01 -5.864578e-06
    outer loop
      vertex   7.431434e+00 -1.191477e+02 -3.259990e+01
      vertex   1.028612e+01 -1.025507e+02 -3.599897e+00
      vertex   1.028629e+01 -1.025507e+02 -3.259990e+01
    endloop
  endfacet
  facet normal -9.855266e-01 1.695207e-01 -5.866043e-06
    outer loop
      vertex   7.431434e+00 -1.191477e+02 -3.259990e+01
      vertex   1.028629e+01 -1.025507e+02 -3.259990e+01
      vertex   1.045602e+01 -1.015639e+02 -3.379964e+01
    endloop
  endfacet
  facet normal -9.855266e-01 1.695207e-01 -5.866043e-06
    outer loop
      vertex   1.045602e+01 -1.015639e+02 -3.379964e+01
      vertex   1.028629e+01 -1.025507e+02 -3.259990e+01
      vertex   1.045602e+01 -1.015639e+02 -3.259990e+01
    endloop
  endfacet
  facet normal -9.855266e-01 1.695207e-01 -5.866043e-06
    outer loop
      vertex   1.045602e+01 -1.015639e+02 -3.379964e+01
      vertex   7.256210e+00 -1.201664e+02 -3.379964e+01
      vertex   7.431434e+00 -1.191477e+02 -3.259990e+01
    endloop
  endfacet
  facet normal -9.855266e-01 1.695207e-01 -5.866043e-06
    outer loop
      vertex   7.431434e+00 -1.191477e+02 -3.259990e+01
      vertex   7.256210e+00 -1.201664e+02 -3.379964e+01
      vertex   7.256210e+00 -1.201663e+02 -3.259990e+01
    endloop
  endfacet
  facet normal 9.855266e-01 -1.695209e-01 5.905255e-06
    outer loop
      vertex   1.105684e+01 -1.015986e+02 -3.259990e+01
      vertex   1.089303e+01 -1.025509e+02 -3.259990e+01
      vertex   1.105684e+01 -1.015986e+02 -3.379964e+01
    endloop
  endfacet
  facet normal 9.855266e-01 -1.695209e-01 5.905255e-06
    outer loop
      vertex   1.105684e+01 -1.015986e+02 -3.379964e+01
      vertex   1.089303e+01 -1.025509e+02 -3.259990e+01
      vertex   8.038176e+00 -1.191479e+02 -3.259990e+01
    endloop
  endfacet
  facet normal 9.855266e-01 -1.695209e-01 5.905255e-06
    outer loop
      vertex   1.105684e+01 -1.015986e+02 -3.379964e+01
      vertex   8.038176e+00 -1.191479e+02 -3.259990e+01
      vertex   7.864283e+00 -1.201589e+02 -3.379964e+01
    endloop
  endfacet
  facet normal 9.855266e-01 -1.695209e-01 5.905255e-06
    outer loop
      vertex   7.864283e+00 -1.201589e+02 -3.379964e+01
      vertex   8.038176e+00 -1.191479e+02 -3.259990e+01
      vertex   7.864283e+00 -1.201588e+02 -3.259990e+01
    endloop
  endfacet
  facet normal 9.855266e-01 -1.695209e-01 5.903779e-06
    outer loop
      vertex   1.089303e+01 -1.025509e+02 -3.259990e+01
      vertex   1.089286e+01 -1.025509e+02 -3.599897e+00
      vertex   8.038176e+00 -1.191479e+02 -3.259990e+01
    endloop
  endfacet
  facet normal 9.855266e-01 -1.695209e-01 5.903779e-06
    outer loop
      vertex   8.038176e+00 -1.191479e+02 -3.259990e+01
      vertex   1.089286e+01 -1.025509e+02 -3.599897e+00
      vertex   8.038002e+00 -1.191479e+02 -3.599897e+00
    endloop
  endfacet
  facet normal 9.855266e-01 -1.695209e-01 5.903779e-06
    outer loop
      vertex   8.038002e+00 -1.191479e+02 -3.599897e+00
      vertex   1.089286e+01 -1.025509e+02 -3.599897e+00
      vertex   1.105684e+01 -1.015975e+02 -2.599937e+00
    endloop
  endfacet
  facet normal 9.855266e-01 -1.695209e-01 5.903779e-06
    outer loop
      vertex   8.038002e+00 -1.191479e+02 -3.599897e+00
      vertex   1.105684e+01 -1.015975e+02 -2.599937e+00
      vertex   7.864281e+00 -1.201578e+02 -2.599937e+00
    endloop
  endfacet
  facet normal 9.855266e-01 -1.695209e-01 5.903779e-06
    outer loop
      vertex   1.089286e+01 -1.025509e+02 -3.599897e+00
      vertex   1.105684e+01 -1.015976e+02 -3.599897e+00
      vertex   1.105684e+01 -1.015975e+02 -2.599937e+00
    endloop
  endfacet
  facet normal 9.855266e-01 -1.695209e-01 5.903779e-06
    outer loop
      vertex   7.864281e+00 -1.201578e+02 -2.599937e+00
      vertex   7.864281e+00 -1.201578e+02 -3.599897e+00
      vertex   8.038002e+00 -1.191479e+02 -3.599897e+00
    endloop
  endfacet
  facet normal 9.856328e-01 1.689020e-01 -5.755898e-06
    outer loop
      vertex   7.864283e+00 -1.201588e+02 -3.259990e+01
      vertex   8.033772e+00 -1.211479e+02 -3.259990e+01
      vertex   7.864283e+00 -1.201589e+02 -3.379964e+01
    endloop
  endfacet
  facet normal 9.856328e-01 1.689020e-01 -5.755898e-06
    outer loop
      vertex   7.864283e+00 -1.201589e+02 -3.379964e+01
      vertex   8.033772e+00 -1.211479e+02 -3.259990e+01
      vertex   1.103393e+01 -1.386554e+02 -3.379964e+01
    endloop
  endfacet
  facet normal 9.856328e-01 1.689020e-01 -5.754515e-06
    outer loop
      vertex   1.103393e+01 -1.386554e+02 -3.379964e+01
      vertex   8.033772e+00 -1.211479e+02 -3.259990e+01
      vertex   1.103393e+01 -1.386543e+02 -2.599937e+00
    endloop
  endfacet
  facet normal 9.856328e-01 1.689020e-01 -5.754460e-06
    outer loop
      vertex   1.103393e+01 -1.386543e+02 -2.599937e+00
      vertex   8.033772e+00 -1.211479e+02 -3.259990e+01
      vertex   8.033941e+00 -1.211479e+02 -3.599897e+00
    endloop
  endfacet
  facet normal 9.856328e-01 1.689020e-01 -5.754460e-06
    outer loop
      vertex   1.103393e+01 -1.386543e+02 -2.599937e+00
      vertex   8.033941e+00 -1.211479e+02 -3.599897e+00
      vertex   7.864281e+00 -1.201578e+02 -2.599937e+00
    endloop
  endfacet
  facet normal 9.856328e-01 1.689020e-01 -5.754460e-06
    outer loop
      vertex   7.864281e+00 -1.201578e+02 -2.599937e+00
      vertex   8.033941e+00 -1.211479e+02 -3.599897e+00
      vertex   7.864281e+00 -1.201578e+02 -3.599897e+00
    endloop
  endfacet
  facet normal 3.490583e-04 9.999999e-01 -0.000000e+00
    outer loop
      vertex   1.296564e+01 -1.513787e+00 -3.626867e+01
      vertex   5.565276e+00 -1.511203e+00 -3.626867e+01
      vertex   1.296564e+01 -1.513787e+00 -3.580011e+01
    endloop
  endfacet
  facet normal 3.490583e-04 9.999999e-01 0.000000e+00
    outer loop
      vertex   1.296564e+01 -1.513787e+00 -3.580011e+01
      vertex   5.565276e+00 -1.511203e+00 -3.626867e+01
      vertex   5.565276e+00 -1.511203e+00 -3.580011e+01
    endloop
  endfacet
  facet normal 0.000000e+00 0.000000e+00 1.000000e+00
    outer loop
      vertex   5.565276e+00 -1.511203e+00 -3.580011e+01
      vertex   5.254473e+00 -2.845094e+00 -3.580011e+01
      vertex   1.296564e+01 -1.513787e+00 -3.580011e+01
    endloop
  endfacet
  facet normal 0.000000e+00 0.000000e+00 1.000000e+00
    outer loop
      vertex   1.296564e+01 -1.513787e+00 -3.580011e+01
      vertex   5.254473e+00 -2.845094e+00 -3.580011e+01
      vertex   1.341848e+01 -2.824091e+00 -3.580011e+01
    endloop
  endfacet
  facet normal 0.000000e+00 0.000000e+00 1.000000e+00
    outer loop
      vertex   1.341848e+01 -2.824091e+00 -3.580011e+01
      vertex   5.254473e+00 -2.845094e+00 -3.580011e+01
      vertex   1.341793e+01 -4.393714e+00 -3.580011e+01
    endloop
  endfacet
  facet normal 0.000000e+00 0.000000e+00 1.000000e+00
    outer loop
      vertex   1.341793e+01 -4.393714e+00 -3.580011e+01
      vertex   5.254473e+00 -2.845094e+00 -3.580011e+01
      vertex   5.253933e+00 -4.390863e+00 -3.580011e+01
    endloop
  endfacet
  facet normal -6.502324e-01 -7.597353e-01 1.427214e-05
    outer loop
      vertex   6.356898e+00 -3.158700e+00 -5.679565e-01
      vertex   4.430041e+00 -1.509566e+00 -5.679875e-01
      vertex   6.356898e+00 -3.158700e+00 -6.002235e-01
    endloop
  endfacet
  facet normal -6.502324e-01 -7.597353e-01 1.427214e-05
    outer loop
      vertex   6.356898e+00 -3.158700e+00 -6.002235e-01
      vertex   4.430041e+00 -1.509566e+00 -5.679875e-01
      vertex   4.430041e+00 -1.509567e+00 -6.002545e-01
    endloop
  endfacet
  facet normal -3.491239e-04 -9.999999e-01 1.878006e-05
    outer loop
      vertex   1.199890e+01 -3.160670e+00 -5.679565e-01
      vertex   6.356898e+00 -3.158700e+00 -5.679565e-01
      vertex   1.199890e+01 -3.160670e+00 -6.002235e-01
    endloop
  endfacet
  facet normal -3.491239e-04 -9.999999e-01 1.878006e-05
    outer loop
      vertex   1.199890e+01 -3.160670e+00 -6.002235e-01
      vertex   6.356898e+00 -3.158700e+00 -5.679565e-01
      vertex   6.356898e+00 -3.158700e+00 -6.002235e-01
    endloop
  endfacet
  facet normal 6.549430e-01 -7.556783e-01 1.418739e-05
    outer loop
      vertex   1.390014e+01 -1.512872e+00 -5.679875e-01
      vertex   1.199890e+01 -3.160670e+00 -5.679565e-01
      vertex   1.390014e+01 -1.512872e+00 -6.002545e-01
    endloop
  endfacet
  facet normal 6.549430e-01 -7.556783e-01 1.418739e-05
    outer loop
      vertex   1.390014e+01 -1.512872e+00 -6.002545e-01
      vertex   1.199890e+01 -3.160670e+00 -5.679565e-01
      vertex   1.199890e+01 -3.160670e+00 -6.002235e-01
    endloop
  endfacet
  facet normal -6.553716e-09 -1.878006e-05 -1.000000e+00
    outer loop
      vertex   4.430041e+00 -1.509567e+00 -6.002545e-01
      vertex   1.390014e+01 -1.512872e+00 -6.002545e-01
      vertex   6.356898e+00 -3.158700e+00 -6.002235e-01
    endloop
  endfacet
  facet normal -6.553747e-09 -1.878006e-05 -1.000000e+00
    outer loop
      vertex   6.356898e+00 -3.158700e+00 -6.002235e-01
      vertex   1.390014e+01 -1.512872e+00 -6.002545e-01
      vertex   1.199890e+01 -3.160670e+00 -6.002235e-01
    endloop
  endfacet
  facet normal 9.462332e-01 -3.234853e-01 -2.384254e-05
    outer loop
      vertex   9.160788e+00 -1.601602e+01 -3.379973e+01
      vertex   9.160788e+00 -1.601602e+01 -3.379964e+01
      vertex   9.131602e+00 -1.610140e+01 -3.379973e+01
    endloop
  endfacet
  facet normal 9.462332e-01 -3.234853e-01 -2.496304e-05
    outer loop
      vertex   9.131602e+00 -1.610140e+01 -3.379973e+01
      vertex   9.160788e+00 -1.601602e+01 -3.379964e+01
      vertex   9.131602e+00 -1.610140e+01 -3.379964e+01
    endloop
  endfacet
  facet normal -9.464588e-01 -3.228246e-01 -4.932088e-06
    outer loop
      vertex   8.000358e+00 -1.278481e+01 -3.379985e+01
      vertex   9.131602e+00 -1.610140e+01 -3.379973e+01
      vertex   8.000358e+00 -1.278481e+01 -3.379964e+01
    endloop
  endfacet
  facet normal -9.464588e-01 -3.228246e-01 -2.496332e-05
    outer loop
      vertex   8.000358e+00 -1.278481e+01 -3.379964e+01
      vertex   9.131602e+00 -1.610140e+01 -3.379973e+01
      vertex   9.131602e+00 -1.610140e+01 -3.379964e+01
    endloop
  endfacet
  facet normal 0.000000e+00 0.000000e+00 -1.000000e+00
    outer loop
      vertex   8.000358e+00 -1.278481e+01 -3.379964e+01
      vertex   9.131602e+00 -1.610140e+01 -3.379964e+01
      vertex   1.046964e+01 -2.719435e+01 -3.379964e+01
    endloop
  endfacet
  facet normal 0.000000e+00 0.000000e+00 -1.000000e+00
    outer loop
      vertex   1.046964e+01 -2.719435e+01 -3.379964e+01
      vertex   9.131602e+00 -1.610140e+01 -3.379964e+01
      vertex   9.160788e+00 -1.601602e+01 -3.379964e+01
    endloop
  endfacet
  facet normal 0.000000e+00 0.000000e+00 -1.000000e+00
    outer loop
      vertex   1.046964e+01 -2.719435e+01 -3.379964e+01
      vertex   9.160788e+00 -1.601602e+01 -3.379964e+01
      vertex   1.107638e+01 -2.719455e+01 -3.379964e+01
    endloop
  endfacet
  facet normal -0.000000e+00 0.000000e+00 -1.000000e+00
    outer loop
      vertex   1.107638e+01 -2.719455e+01 -3.379964e+01
      vertex   7.875501e+00 -4.580319e+01 -3.379964e+01
      vertex   1.046964e+01 -2.719435e+01 -3.379964e+01
    endloop
  endfacet
  facet normal 0.000000e+00 0.000000e+00 -1.000000e+00
    outer loop
      vertex   1.046964e+01 -2.719435e+01 -3.379964e+01
      vertex   7.875501e+00 -4.580319e+01 -3.379964e+01
      vertex   7.268751e+00 -4.580300e+01 -3.379964e+01
    endloop
  endfacet
  facet normal 0.000000e+00 0.000000e+00 -1.000000e+00
    outer loop
      vertex   7.268751e+00 -4.580300e+01 -3.379964e+01
      vertex   7.875501e+00 -4.580319e+01 -3.379964e+01
      vertex   1.045794e+01 -6.441360e+01 -3.379964e+01
    endloop
  endfacet
  facet normal 0.000000e+00 0.000000e+00 -1.000000e+00
    outer loop
      vertex   1.045794e+01 -6.441360e+01 -3.379964e+01
      vertex   7.875501e+00 -4.580319e+01 -3.379964e+01
      vertex   1.106469e+01 -6.441379e+01 -3.379964e+01
    endloop
  endfacet
  facet normal 0.000000e+00 -0.000000e+00 -1.000000e+00
    outer loop
      vertex   1.045794e+01 -6.441360e+01 -3.379964e+01
      vertex   1.106469e+01 -6.441379e+01 -3.379964e+01
      vertex   7.868693e+00 -8.299405e+01 -3.379964e+01
    endloop
  endfacet
  facet normal 0.000000e+00 0.000000e+00 -1.000000e+00
    outer loop
      vertex   1.105684e+01 -1.015986e+02 -3.379964e+01
      vertex   1.045602e+01 -1.015639e+02 -3.379964e+01
      vertex   7.868693e+00 -8.299405e+01 -3.379964e+01
    endloop
  endfacet
  facet normal 0.000000e+00 0.000000e+00 -1.000000e+00
    outer loop
      vertex   7.868693e+00 -8.299405e+01 -3.379964e+01
      vertex   1.045602e+01 -1.015639e+02 -3.379964e+01
      vertex   1.044452e+01 -1.015659e+02 -3.379964e+01
    endloop
  endfacet
  facet normal -0.000000e+00 -0.000000e+00 -1.000000e+00
    outer loop
      vertex   7.868693e+00 -8.299405e+01 -3.379964e+01
      vertex   1.044452e+01 -1.015659e+02 -3.379964e+01
      vertex   7.261942e+00 -8.299384e+01 -3.379964e+01
    endloop
  endfacet
  facet normal -0.000000e+00 0.000000e+00 -1.000000e+00
    outer loop
      vertex   1.105684e+01 -1.015986e+02 -3.379964e+01
      vertex   7.864283e+00 -1.201589e+02 -3.379964e+01
      vertex   1.045602e+01 -1.015639e+02 -3.379964e+01
    endloop
  endfacet
  facet normal 0.000000e+00 0.000000e+00 -1.000000e+00
    outer loop
      vertex   1.045602e+01 -1.015639e+02 -3.379964e+01
      vertex   7.864283e+00 -1.201589e+02 -3.379964e+01
      vertex   7.256210e+00 -1.201664e+02 -3.379964e+01
    endloop
  endfacet
  facet normal 0.000000e+00 0.000000e+00 -1.000000e+00
    outer loop
      vertex   7.256210e+00 -1.201664e+02 -3.379964e+01
      vertex   7.864283e+00 -1.201589e+02 -3.379964e+01
      vertex   1.044194e+01 -1.387569e+02 -3.379964e+01
    endloop
  endfacet
  facet normal 0.000000e+00 0.000000e+00 -1.000000e+00
    outer loop
      vertex   1.044194e+01 -1.387569e+02 -3.379964e+01
      vertex   7.864283e+00 -1.201589e+02 -3.379964e+01
      vertex   1.103393e+01 -1.386554e+02 -3.379964e+01
    endloop
  endfacet
  facet normal 0.000000e+00 0.000000e+00 -1.000000e+00
    outer loop
      vertex   7.261942e+00 -8.299384e+01 -3.379964e+01
      vertex   1.045794e+01 -6.441360e+01 -3.379964e+01
      vertex   7.868693e+00 -8.299405e+01 -3.379964e+01
    endloop
  endfacet
  facet normal 9.855266e-01 -1.695207e-01 5.905245e-06
    outer loop
      vertex   7.868692e+00 -8.299401e+01 -3.259990e+01
      vertex   7.868693e+00 -8.299405e+01 -3.379964e+01
      vertex   8.047951e+00 -8.195187e+01 -3.259990e+01
    endloop
  endfacet
  facet normal 9.855266e-01 -1.695207e-01 5.905245e-06
    outer loop
      vertex   8.047951e+00 -8.195187e+01 -3.259990e+01
      vertex   7.868693e+00 -8.299405e+01 -3.379964e+01
      vertex   1.106469e+01 -6.441379e+01 -3.379964e+01
    endloop
  endfacet
  facet normal 9.855266e-01 -1.695207e-01 5.905245e-06
    outer loop
      vertex   8.047951e+00 -8.195187e+01 -3.259990e+01
      vertex   1.106469e+01 -6.441379e+01 -3.379964e+01
      vertex   1.090281e+01 -6.535486e+01 -3.259990e+01
    endloop
  endfacet
  facet normal 9.855266e-01 -1.695207e-01 5.905245e-06
    outer loop
      vertex   1.090281e+01 -6.535486e+01 -3.259990e+01
      vertex   1.106469e+01 -6.441379e+01 -3.379964e+01
      vertex   1.106469e+01 -6.441374e+01 -3.259990e+01
    endloop
  endfacet
  facet normal 9.855266e-01 -1.695207e-01 5.903770e-06
    outer loop
      vertex   1.090281e+01 -6.535486e+01 -3.259990e+01
      vertex   1.090263e+01 -6.535486e+01 -3.599897e+00
      vertex   8.047951e+00 -8.195187e+01 -3.259990e+01
    endloop
  endfacet
  facet normal 9.855266e-01 -1.695207e-01 5.903770e-06
    outer loop
      vertex   8.047951e+00 -8.195187e+01 -3.259990e+01
      vertex   1.090263e+01 -6.535486e+01 -3.599897e+00
      vertex   8.047778e+00 -8.195187e+01 -3.599897e+00
    endloop
  endfacet
  facet normal 9.855266e-01 -1.695207e-01 5.903770e-06
    outer loop
      vertex   8.047778e+00 -8.195187e+01 -3.599897e+00
      vertex   1.090263e+01 -6.535486e+01 -3.599897e+00
      vertex   1.106469e+01 -6.441270e+01 -2.599937e+00
    endloop
  endfacet
  facet normal 9.855266e-01 -1.695207e-01 5.903770e-06
    outer loop
      vertex   8.047778e+00 -8.195187e+01 -3.599897e+00
      vertex   1.106469e+01 -6.441270e+01 -2.599937e+00
      vertex   7.868691e+00 -8.299298e+01 -2.599937e+00
    endloop
  endfacet
  facet normal 9.855266e-01 -1.695207e-01 5.903770e-06
    outer loop
      vertex   1.090263e+01 -6.535486e+01 -3.599897e+00
      vertex   1.106469e+01 -6.441273e+01 -3.599897e+00
      vertex   1.106469e+01 -6.441270e+01 -2.599937e+00
    endloop
  endfacet
  facet normal 9.855266e-01 -1.695207e-01 5.903770e-06
    outer loop
      vertex   7.868691e+00 -8.299298e+01 -2.599937e+00
      vertex   7.868691e+00 -8.299301e+01 -3.599897e+00
      vertex   8.047778e+00 -8.195187e+01 -3.599897e+00
    endloop
  endfacet
  facet normal 9.856328e-01 1.689021e-01 -5.905012e-06
    outer loop
      vertex   1.106469e+01 -6.441374e+01 -3.259990e+01
      vertex   1.106469e+01 -6.441379e+01 -3.379964e+01
      vertex   1.088323e+01 -6.335486e+01 -3.259990e+01
    endloop
  endfacet
  facet normal 9.856328e-01 1.689021e-01 -5.905012e-06
    outer loop
      vertex   1.088323e+01 -6.335486e+01 -3.259990e+01
      vertex   1.106469e+01 -6.441379e+01 -3.379964e+01
      vertex   7.875501e+00 -4.580319e+01 -3.379964e+01
    endloop
  endfacet
  facet normal 9.856328e-01 1.689021e-01 -5.905012e-06
    outer loop
      vertex   1.088323e+01 -6.335486e+01 -3.259990e+01
      vertex   7.875501e+00 -4.580319e+01 -3.379964e+01
      vertex   8.038761e+00 -4.675586e+01 -3.259990e+01
    endloop
  endfacet
  facet normal 9.856328e-01 1.689021e-01 -5.905012e-06
    outer loop
      vertex   8.038761e+00 -4.675586e+01 -3.259990e+01
      vertex   7.875501e+00 -4.580319e+01 -3.379964e+01
      vertex   7.875501e+00 -4.580315e+01 -3.259990e+01
    endloop
  endfacet
  facet normal 9.856328e-01 1.689021e-01 -5.903537e-06
    outer loop
      vertex   8.038761e+00 -4.675586e+01 -3.259990e+01
      vertex   8.038935e+00 -4.675586e+01 -3.599897e+00
      vertex   1.088323e+01 -6.335486e+01 -3.259990e+01
    endloop
  endfacet
  facet normal 9.856328e-01 1.689021e-01 -5.903537e-06
    outer loop
      vertex   1.088323e+01 -6.335486e+01 -3.259990e+01
      vertex   8.038935e+00 -4.675586e+01 -3.599897e+00
      vertex   1.088341e+01 -6.335486e+01 -3.599897e+00
    endloop
  endfacet
  facet normal 9.856328e-01 1.689021e-01 -5.903537e-06
    outer loop
      vertex   1.088341e+01 -6.335486e+01 -3.599897e+00
      vertex   8.038935e+00 -4.675586e+01 -3.599897e+00
      vertex   7.875501e+00 -4.580211e+01 -2.599937e+00
    endloop
  endfacet
  facet normal 9.856328e-01 1.689021e-01 -5.903537e-06
    outer loop
      vertex   1.088341e+01 -6.335486e+01 -3.599897e+00
      vertex   7.875501e+00 -4.580211e+01 -2.599937e+00
      vertex   1.106469e+01 -6.441270e+01 -2.599937e+00
    endloop
  endfacet
  facet normal 9.856328e-01 1.689021e-01 -5.903537e-06
    outer loop
      vertex   8.038935e+00 -4.675586e+01 -3.599897e+00
      vertex   7.875501e+00 -4.580214e+01 -3.599897e+00
      vertex   7.875501e+00 -4.580211e+01 -2.599937e+00
    endloop
  endfacet
  facet normal 9.856328e-01 1.689021e-01 -5.903537e-06
    outer loop
      vertex   1.106469e+01 -6.441270e+01 -2.599937e+00
      vertex   1.106469e+01 -6.441273e+01 -3.599897e+00
      vertex   1.088341e+01 -6.335486e+01 -3.599897e+00
    endloop
  endfacet
  facet normal 9.856329e-01 1.689019e-01 -5.892599e-06
    outer loop
      vertex   1.107638e+01 -2.719451e+01 -3.259990e+01
      vertex   1.107638e+01 -2.719455e+01 -3.379964e+01
      vertex   1.089891e+01 -2.615886e+01 -3.259990e+01
    endloop
  endfacet
  facet normal 9.856329e-01 1.689019e-01 -5.892599e-06
    outer loop
      vertex   1.089891e+01 -2.615886e+01 -3.259990e+01
      vertex   1.107638e+01 -2.719455e+01 -3.379964e+01
      vertex   9.160788e+00 -1.601602e+01 -3.379964e+01
    endloop
  endfacet
  facet normal 9.856329e-01 1.689019e-01 -5.891184e-06
    outer loop
      vertex   1.089891e+01 -2.615886e+01 -3.259990e+01
      vertex   9.160788e+00 -1.601602e+01 -3.379964e+01
      vertex   9.160788e+00 -1.601494e+01 -2.599978e+00
    endloop
  endfacet
  facet normal 9.856329e-01 1.689019e-01 -5.891127e-06
    outer loop
      vertex   1.089891e+01 -2.615886e+01 -3.259990e+01
      vertex   9.160788e+00 -1.601494e+01 -2.599978e+00
      vertex   1.089908e+01 -2.615886e+01 -3.599897e+00
    endloop
  endfacet
  facet normal 9.856329e-01 1.689019e-01 -5.890180e-06
    outer loop
      vertex   1.089908e+01 -2.615886e+01 -3.599897e+00
      vertex   9.160788e+00 -1.601494e+01 -2.599978e+00
      vertex   9.160788e+00 -1.601494e+01 -2.599937e+00
    endloop
  endfacet
  facet normal 9.856329e-01 1.689019e-01 -5.891127e-06
    outer loop
      vertex   1.089908e+01 -2.615886e+01 -3.599897e+00
      vertex   9.160788e+00 -1.601494e+01 -2.599937e+00
      vertex   1.107638e+01 -2.719346e+01 -2.599937e+00
    endloop
  endfacet
  facet normal 9.856329e-01 1.689019e-01 -5.891127e-06
    outer loop
      vertex   1.107638e+01 -2.719346e+01 -2.599937e+00
      vertex   1.107638e+01 -2.719350e+01 -3.599897e+00
      vertex   1.089908e+01 -2.615886e+01 -3.599897e+00
    endloop
  endfacet
  facet normal 9.464588e-01 3.228246e-01 -1.123480e-05
    outer loop
      vertex   8.000358e+00 -1.278373e+01 -2.599937e+00
      vertex   9.131602e+00 -1.610031e+01 -2.599937e+00
      vertex   8.000358e+00 -1.278373e+01 -2.600090e+00
    endloop
  endfacet
  facet normal 9.464588e-01 3.228246e-01 -1.123658e-05
    outer loop
      vertex   8.000358e+00 -1.278373e+01 -2.600090e+00
      vertex   9.131602e+00 -1.610031e+01 -2.599937e+00
      vertex   9.131602e+00 -1.610031e+01 -2.599975e+00
    endloop
  endfacet
  facet normal -9.462332e-01 3.234853e-01 -1.123447e-05
    outer loop
      vertex   9.160788e+00 -1.601494e+01 -2.599937e+00
      vertex   9.160788e+00 -1.601494e+01 -2.599978e+00
      vertex   9.131602e+00 -1.610031e+01 -2.599937e+00
    endloop
  endfacet
  facet normal -9.462332e-01 3.234853e-01 -1.123662e-05
    outer loop
      vertex   9.131602e+00 -1.610031e+01 -2.599937e+00
      vertex   9.160788e+00 -1.601494e+01 -2.599978e+00
      vertex   9.131602e+00 -1.610031e+01 -2.599975e+00
    endloop
  endfacet
  facet normal 1.213446e-08 3.476342e-05 1.000000e+00
    outer loop
      vertex   1.138669e+01 -1.512065e+00 -2.600482e+00
      vertex   6.886695e+00 -1.510494e+00 -2.600482e+00
      vertex   1.138390e+01 -9.512065e+00 -2.600204e+00
    endloop
  endfacet
  facet normal 1.213446e-08 3.476342e-05 1.000000e+00
    outer loop
      vertex   1.138390e+01 -9.512065e+00 -2.600204e+00
      vertex   6.886695e+00 -1.510494e+00 -2.600482e+00
      vertex   6.883902e+00 -9.510494e+00 -2.600204e+00
    endloop
  endfacet
  facet normal 1.213495e-08 3.476483e-05 1.000000e+00
    outer loop
      vertex   1.138390e+01 -9.512065e+00 -2.600204e+00
      vertex   6.883902e+00 -9.510494e+00 -2.600204e+00
      vertex   8.000358e+00 -1.278373e+01 -2.600090e+00
    endloop
  endfacet
  facet normal 1.212706e-08 3.476342e-05 1.000000e+00
    outer loop
      vertex   9.131602e+00 -1.610031e+01 -2.599975e+00
      vertex   9.160788e+00 -1.601494e+01 -2.599978e+00
      vertex   8.000358e+00 -1.278373e+01 -2.600090e+00
    endloop
  endfacet
  facet normal 1.314605e-08 3.476378e-05 1.000000e+00
    outer loop
      vertex   8.000358e+00 -1.278373e+01 -2.600090e+00
      vertex   9.160788e+00 -1.601494e+01 -2.599978e+00
      vertex   1.138390e+01 -9.512065e+00 -2.600204e+00
    endloop
  endfacet
  facet normal 9.462332e-01 -3.234853e-01 1.123397e-05
    outer loop
      vertex   1.138390e+01 -9.512099e+00 -3.599897e+00
      vertex   1.138390e+01 -9.512065e+00 -2.600204e+00
      vertex   1.136718e+01 -9.561023e+00 -3.599897e+00
    endloop
  endfacet
  facet normal 9.462332e-01 -3.234853e-01 1.123399e-05
    outer loop
      vertex   1.136718e+01 -9.561023e+00 -3.599897e+00
      vertex   1.138390e+01 -9.512065e+00 -2.600204e+00
      vertex   9.160788e+00 -1.601494e+01 -2.599978e+00
    endloop
  endfacet
  facet normal 9.462332e-01 -3.234853e-01 1.123397e-05
    outer loop
      vertex   1.136718e+01 -9.561023e+00 -3.599897e+00
      vertex   9.160788e+00 -1.601494e+01 -2.599978e+00
      vertex   1.136752e+01 -9.561024e+00 -3.259990e+01
    endloop
  endfacet
  facet normal 9.462332e-01 -3.234853e-01 1.123408e-05
    outer loop
      vertex   1.136752e+01 -9.561024e+00 -3.259990e+01
      vertex   9.160788e+00 -1.601494e+01 -2.599978e+00
      vertex   9.160788e+00 -1.601602e+01 -3.379964e+01
    endloop
  endfacet
  facet normal 9.462352e-01 -3.234794e-01 -2.384211e-05
    outer loop
      vertex   1.136752e+01 -9.561024e+00 -3.259990e+01
      vertex   9.160788e+00 -1.601602e+01 -3.379964e+01
      vertex   9.160788e+00 -1.601602e+01 -3.379973e+01
    endloop
  endfacet
  facet normal 9.462332e-01 -3.234853e-01 1.123397e-05
    outer loop
      vertex   9.160788e+00 -1.601602e+01 -3.379973e+01
      vertex   1.138390e+01 -9.513149e+00 -3.379996e+01
      vertex   1.136752e+01 -9.561024e+00 -3.259990e+01
    endloop
  endfacet
  facet normal 9.462332e-01 -3.234853e-01 1.123397e-05
    outer loop
      vertex   1.136752e+01 -9.561024e+00 -3.259990e+01
      vertex   1.138390e+01 -9.513149e+00 -3.379996e+01
      vertex   1.138390e+01 -9.513107e+00 -3.259990e+01
    endloop
  endfacet
  facet normal -1.213446e-08 -3.476342e-05 -1.000000e+00
    outer loop
      vertex   1.138669e+01 -1.513150e+00 -3.380024e+01
      vertex   1.138390e+01 -9.513149e+00 -3.379996e+01
      vertex   6.886694e+00 -1.511579e+00 -3.380024e+01
    endloop
  endfacet
  facet normal -1.213446e-08 -3.476342e-05 -1.000000e+00
    outer loop
      vertex   6.886694e+00 -1.511579e+00 -3.380024e+01
      vertex   1.138390e+01 -9.513149e+00 -3.379996e+01
      vertex   6.883902e+00 -9.511578e+00 -3.379996e+01
    endloop
  endfacet
  facet normal -1.213446e-08 -3.476342e-05 -1.000000e+00
    outer loop
      vertex   6.883902e+00 -9.511578e+00 -3.379996e+01
      vertex   1.138390e+01 -9.513149e+00 -3.379996e+01
      vertex   8.000358e+00 -1.278481e+01 -3.379985e+01
    endloop
  endfacet
  facet normal -1.213429e-08 -3.476342e-05 -1.000000e+00
    outer loop
      vertex   8.000358e+00 -1.278481e+01 -3.379985e+01
      vertex   1.138390e+01 -9.513149e+00 -3.379996e+01
      vertex   9.160788e+00 -1.601602e+01 -3.379973e+01
    endloop
  endfacet
  facet normal -1.213180e-08 -3.476342e-05 -1.000000e+00
    outer loop
      vertex   8.000358e+00 -1.278481e+01 -3.379985e+01
      vertex   9.160788e+00 -1.601602e+01 -3.379973e+01
      vertex   9.131602e+00 -1.610140e+01 -3.379973e+01
    endloop
  endfacet
  facet normal -9.856328e-01 -1.689021e-01 5.881371e-06
    outer loop
      vertex   1.046964e+01 -2.719330e+01 -3.599897e+00
      vertex   1.046964e+01 -2.719326e+01 -2.599937e+00
      vertex   1.029233e+01 -2.615865e+01 -3.599897e+00
    endloop
  endfacet
  facet normal -9.856328e-01 -1.689021e-01 5.881371e-06
    outer loop
      vertex   1.029233e+01 -2.615865e+01 -3.599897e+00
      vertex   1.046964e+01 -2.719326e+01 -2.599937e+00
      vertex   8.000358e+00 -1.278373e+01 -2.599937e+00
    endloop
  endfacet
  facet normal -9.856328e-01 -1.689021e-01 5.881464e-06
    outer loop
      vertex   1.029233e+01 -2.615865e+01 -3.599897e+00
      vertex   8.000358e+00 -1.278373e+01 -2.599937e+00
      vertex   8.000358e+00 -1.278373e+01 -2.600090e+00
    endloop
  endfacet
  facet normal -9.856328e-01 -1.689021e-01 5.881371e-06
    outer loop
      vertex   1.029233e+01 -2.615865e+01 -3.599897e+00
      vertex   8.000358e+00 -1.278373e+01 -2.600090e+00
      vertex   1.029216e+01 -2.615865e+01 -3.259990e+01
    endloop
  endfacet
  facet normal -9.856328e-01 -1.689021e-01 5.881427e-06
    outer loop
      vertex   1.029216e+01 -2.615865e+01 -3.259990e+01
      vertex   8.000358e+00 -1.278373e+01 -2.600090e+00
      vertex   8.000358e+00 -1.278481e+01 -3.379964e+01
    endloop
  endfacet
  facet normal -9.856328e-01 -1.689021e-01 5.882840e-06
    outer loop
      vertex   1.029216e+01 -2.615865e+01 -3.259990e+01
      vertex   8.000358e+00 -1.278481e+01 -3.379964e+01
      vertex   1.046964e+01 -2.719435e+01 -3.379964e+01
    endloop
  endfacet
  facet normal -9.856328e-01 -1.689021e-01 5.882840e-06
    outer loop
      vertex   1.046964e+01 -2.719435e+01 -3.379964e+01
      vertex   1.046964e+01 -2.719431e+01 -3.259990e+01
      vertex   1.029216e+01 -2.615865e+01 -3.259990e+01
    endloop
  endfacet
  facet normal 0.000000e+00 0.000000e+00 1.000000e+00
    outer loop
      vertex   8.000358e+00 -1.278373e+01 -2.599937e+00
      vertex   1.046964e+01 -2.719326e+01 -2.599937e+00
      vertex   9.131602e+00 -1.610031e+01 -2.599937e+00
    endloop
  endfacet
  facet normal -0.000000e+00 0.000000e+00 1.000000e+00
    outer loop
      vertex   9.131602e+00 -1.610031e+01 -2.599937e+00
      vertex   1.046964e+01 -2.719326e+01 -2.599937e+00
      vertex   9.160788e+00 -1.601494e+01 -2.599937e+00
    endloop
  endfacet
  facet normal 0.000000e+00 0.000000e+00 1.000000e+00
    outer loop
      vertex   9.160788e+00 -1.601494e+01 -2.599937e+00
      vertex   1.046964e+01 -2.719326e+01 -2.599937e+00
      vertex   1.107638e+01 -2.719346e+01 -2.599937e+00
    endloop
  endfacet
  facet normal 0.000000e+00 0.000000e+00 1.000000e+00
    outer loop
      vertex   1.107638e+01 -2.719346e+01 -2.599937e+00
      vertex   1.046964e+01 -2.719326e+01 -2.599937e+00
      vertex   7.875501e+00 -4.580211e+01 -2.599937e+00
    endloop
  endfacet
  facet normal 0.000000e+00 -0.000000e+00 1.000000e+00
    outer loop
      vertex   7.875501e+00 -4.580211e+01 -2.599937e+00
      vertex   1.046964e+01 -2.719326e+01 -2.599937e+00
      vertex   7.268751e+00 -4.580192e+01 -2.599937e+00
    endloop
  endfacet
  facet normal 0.000000e+00 0.000000e+00 1.000000e+00
    outer loop
      vertex   7.875501e+00 -4.580211e+01 -2.599937e+00
      vertex   7.268751e+00 -4.580192e+01 -2.599937e+00
      vertex   1.045794e+01 -6.441251e+01 -2.599937e+00
    endloop
  endfacet
  facet normal -0.000000e+00 0.000000e+00 1.000000e+00
    outer loop
      vertex   7.261940e+00 -8.299276e+01 -2.599937e+00
      vertex   7.868691e+00 -8.299298e+01 -2.599937e+00
      vertex   1.045794e+01 -6.441251e+01 -2.599937e+00
    endloop
  endfacet
  facet normal 0.000000e+00 0.000000e+00 1.000000e+00
    outer loop
      vertex   1.045794e+01 -6.441251e+01 -2.599937e+00
      vertex   7.868691e+00 -8.299298e+01 -2.599937e+00
      vertex   1.106469e+01 -6.441270e+01 -2.599937e+00
    endloop
  endfacet
  facet normal -0.000000e+00 -0.000000e+00 1.000000e+00
    outer loop
      vertex   1.045794e+01 -6.441251e+01 -2.599937e+00
      vertex   1.106469e+01 -6.441270e+01 -2.599937e+00
      vertex   7.875501e+00 -4.580211e+01 -2.599937e+00
    endloop
  endfacet
  facet normal 0.000000e+00 0.000000e+00 1.000000e+00
    outer loop
      vertex   7.261940e+00 -8.299276e+01 -2.599937e+00
      vertex   1.044452e+01 -1.015648e+02 -2.599937e+00
      vertex   7.868691e+00 -8.299298e+01 -2.599937e+00
    endloop
  endfacet
  facet normal 0.000000e+00 0.000000e+00 1.000000e+00
    outer loop
      vertex   7.868691e+00 -8.299298e+01 -2.599937e+00
      vertex   1.044452e+01 -1.015648e+02 -2.599937e+00
      vertex   1.045602e+01 -1.015629e+02 -2.599937e+00
    endloop
  endfacet
  facet normal 0.000000e+00 0.000000e+00 1.000000e+00
    outer loop
      vertex   7.868691e+00 -8.299298e+01 -2.599937e+00
      vertex   1.045602e+01 -1.015629e+02 -2.599937e+00
      vertex   1.105684e+01 -1.015975e+02 -2.599937e+00
    endloop
  endfacet
  facet normal 0.000000e+00 0.000000e+00 1.000000e+00
    outer loop
      vertex   1.105684e+01 -1.015975e+02 -2.599937e+00
      vertex   1.045602e+01 -1.015629e+02 -2.599937e+00
      vertex   7.864281e+00 -1.201578e+02 -2.599937e+00
    endloop
  endfacet
  facet normal 0.000000e+00 -0.000000e+00 1.000000e+00
    outer loop
      vertex   7.864281e+00 -1.201578e+02 -2.599937e+00
      vertex   1.045602e+01 -1.015629e+02 -2.599937e+00
      vertex   7.256209e+00 -1.201653e+02 -2.599937e+00
    endloop
  endfacet
  facet normal 0.000000e+00 0.000000e+00 1.000000e+00
    outer loop
      vertex   7.864281e+00 -1.201578e+02 -2.599937e+00
      vertex   7.256209e+00 -1.201653e+02 -2.599937e+00
      vertex   1.044195e+01 -1.387558e+02 -2.599937e+00
    endloop
  endfacet
  facet normal 0.000000e+00 -0.000000e+00 1.000000e+00
    outer loop
      vertex   1.044195e+01 -1.387558e+02 -2.599937e+00
      vertex   1.103393e+01 -1.386543e+02 -2.599937e+00
      vertex   7.864281e+00 -1.201578e+02 -2.599937e+00
    endloop
  endfacet
  facet normal 9.451473e-01 3.266445e-01 1.601799e-14
    outer loop
      vertex   1.296567e+01 -1.513870e+00 -3.867367e+01
      vertex   1.296564e+01 -1.513787e+00 -3.626867e+01
      vertex   1.341848e+01 -2.824091e+00 -3.867367e+01
    endloop
  endfacet
  facet normal 9.451473e-01 3.266445e-01 -0.000000e+00
    outer loop
      vertex   1.341848e+01 -2.824091e+00 -3.867367e+01
      vertex   1.296564e+01 -1.513787e+00 -3.626867e+01
      vertex   1.341848e+01 -2.824091e+00 -3.580011e+01
    endloop
  endfacet
  facet normal 9.451473e-01 3.266445e-01 0.000000e+00
    outer loop
      vertex   1.341848e+01 -2.824091e+00 -3.580011e+01
      vertex   1.296564e+01 -1.513787e+00 -3.626867e+01
      vertex   1.296564e+01 -1.513787e+00 -3.580011e+01
    endloop
  endfacet
  facet normal -9.999999e-01 3.490099e-04 0.000000e+00
    outer loop
      vertex   5.254473e+00 -2.845094e+00 -3.580011e+01
      vertex   5.254473e+00 -2.845094e+00 -3.867367e+01
      vertex   5.253933e+00 -4.390863e+00 -3.580011e+01
    endloop
  endfacet
  facet normal -9.999999e-01 3.490099e-04 0.000000e+00
    outer loop
      vertex   5.253933e+00 -4.390863e+00 -3.580011e+01
      vertex   5.254473e+00 -2.845094e+00 -3.867367e+01
      vertex   5.253933e+00 -4.390863e+00 -3.867367e+01
    endloop
  endfacet
  facet normal -9.739120e-01 2.269262e-01 -1.164997e-15
    outer loop
      vertex   5.565256e+00 -1.511287e+00 -3.867367e+01
      vertex   5.254473e+00 -2.845094e+00 -3.867367e+01
      vertex   5.565276e+00 -1.511203e+00 -3.626867e+01
    endloop
  endfacet
  facet normal -9.739120e-01 2.269262e-01 0.000000e+00
    outer loop
      vertex   5.565276e+00 -1.511203e+00 -3.626867e+01
      vertex   5.254473e+00 -2.845094e+00 -3.867367e+01
      vertex   5.254473e+00 -2.845094e+00 -3.580011e+01
    endloop
  endfacet
  facet normal -9.739120e-01 2.269262e-01 0.000000e+00
    outer loop
      vertex   5.565276e+00 -1.511203e+00 -3.626867e+01
      vertex   5.254473e+00 -2.845094e+00 -3.580011e+01
      vertex   5.565276e+00 -1.511203e+00 -3.580011e+01
    endloop
  endfacet
  facet normal 9.999999e-01 -3.491165e-04 0.000000e+00
    outer loop
      vertex   1.341793e+01 -4.393714e+00 -3.580011e+01
      vertex   1.341793e+01 -4.393714e+00 -3.867367e+01
      vertex   1.341848e+01 -2.824091e+00 -3.580011e+01
    endloop
  endfacet
  facet normal 9.999999e-01 -3.491165e-04 0.000000e+00
    outer loop
      vertex   1.341848e+01 -2.824091e+00 -3.580011e+01
      vertex   1.341793e+01 -4.393714e+00 -3.867367e+01
      vertex   1.341848e+01 -2.824091e+00 -3.867367e+01
    endloop
  endfacet
  facet normal -3.491541e-04 -9.999999e-01 0.000000e+00
    outer loop
      vertex   1.341793e+01 -4.393714e+00 -3.867367e+01
      vertex   1.341793e+01 -4.393714e+00 -3.580011e+01
      vertex   5.253933e+00 -4.390863e+00 -3.867367e+01
    endloop
  endfacet
  facet normal -3.491541e-04 -9.999999e-01 0.000000e+00
    outer loop
      vertex   5.253933e+00 -4.390863e+00 -3.867367e+01
      vertex   1.341793e+01 -4.393714e+00 -3.580011e+01
      vertex   5.253933e+00 -4.390863e+00 -3.580011e+01
    endloop
  endfacet
  facet normal -3.511076e-04 -9.999999e-01 1.878006e-05
    outer loop
      vertex   4.430041e+00 -1.509566e+00 -5.679875e-01
      vertex   -5.281448e-04 -1.508000e+00 6.347656e-05
      vertex   4.430041e+00 -1.509567e+00 -6.002545e-01
    endloop
  endfacet
  facet normal -3.489386e-04 -9.999999e-01 3.478782e-05
    outer loop
      vertex   4.430041e+00 -1.509567e+00 -6.002545e-01
      vertex   -5.281448e-04 -1.508000e+00 6.347656e-05
      vertex   6.886694e+00 -1.511579e+00 -3.380024e+01
    endloop
  endfacet
  facet normal -3.492683e-04 -9.999999e-01 3.476342e-05
    outer loop
      vertex   4.430041e+00 -1.509567e+00 -6.002545e-01
      vertex   6.886694e+00 -1.511579e+00 -3.380024e+01
      vertex   6.886695e+00 -1.510494e+00 -2.600482e+00
    endloop
  endfacet
  facet normal -3.490583e-04 -9.999999e-01 3.476342e-05
    outer loop
      vertex   4.430041e+00 -1.509566e+00 -5.679875e-01
      vertex   4.430043e+00 -1.509546e+00 6.347656e-05
      vertex   -5.281448e-04 -1.508000e+00 6.347656e-05
    endloop
  endfacet
  facet normal -3.490583e-04 -9.999999e-01 3.476342e-05
    outer loop
      vertex   -5.281448e-04 -1.508000e+00 6.347656e-05
      vertex   -5.281448e-04 -1.509344e+00 -3.867367e+01
      vertex   6.886694e+00 -1.511579e+00 -3.380024e+01
    endloop
  endfacet
  facet normal -3.490583e-04 -9.999999e-01 3.476342e-05
    outer loop
      vertex   6.886694e+00 -1.511579e+00 -3.380024e+01
      vertex   -5.281448e-04 -1.509344e+00 -3.867367e+01
      vertex   5.565276e+00 -1.511203e+00 -3.626867e+01
    endloop
  endfacet
  facet normal -3.490583e-04 -9.999999e-01 3.476342e-05
    outer loop
      vertex   6.886694e+00 -1.511579e+00 -3.380024e+01
      vertex   5.565276e+00 -1.511203e+00 -3.626867e+01
      vertex   1.138669e+01 -1.513150e+00 -3.380024e+01
    endloop
  endfacet
  facet normal -3.490583e-04 -9.999999e-01 3.476342e-05
    outer loop
      vertex   1.138669e+01 -1.513150e+00 -3.380024e+01
      vertex   5.565276e+00 -1.511203e+00 -3.626867e+01
      vertex   1.296564e+01 -1.513787e+00 -3.626867e+01
    endloop
  endfacet
  facet normal -3.490583e-04 -9.999999e-01 3.476342e-05
    outer loop
      vertex   1.138669e+01 -1.513150e+00 -3.380024e+01
      vertex   1.296564e+01 -1.513787e+00 -3.626867e+01
      vertex   1.832947e+01 -1.514398e+00 6.347656e-05
    endloop
  endfacet
  facet normal -3.490583e-04 -9.999999e-01 3.476342e-05
    outer loop
      vertex   1.832947e+01 -1.514398e+00 6.347656e-05
      vertex   1.296564e+01 -1.513787e+00 -3.626867e+01
      vertex   1.832947e+01 -1.515742e+00 -3.867367e+01
    endloop
  endfacet
  facet normal -3.490583e-04 -9.999999e-01 3.476342e-05
    outer loop
      vertex   1.832947e+01 -1.515742e+00 -3.867367e+01
      vertex   1.296564e+01 -1.513787e+00 -3.626867e+01
      vertex   1.296567e+01 -1.513870e+00 -3.867367e+01
    endloop
  endfacet
  facet normal -3.490583e-04 -9.999999e-01 3.476342e-05
    outer loop
      vertex   -5.281448e-04 -1.509344e+00 -3.867367e+01
      vertex   5.565256e+00 -1.511287e+00 -3.867367e+01
      vertex   5.565276e+00 -1.511203e+00 -3.626867e+01
    endloop
  endfacet
  facet normal -3.490583e-04 -9.999999e-01 3.476342e-05
    outer loop
      vertex   1.390014e+01 -1.512852e+00 6.347656e-05
      vertex   1.390014e+01 -1.512872e+00 -5.679875e-01
      vertex   1.832947e+01 -1.514398e+00 6.347656e-05
    endloop
  endfacet
  facet normal -3.470085e-04 -9.999999e-01 1.878006e-05
    outer loop
      vertex   1.832947e+01 -1.514398e+00 6.347656e-05
      vertex   1.390014e+01 -1.512872e+00 -5.679875e-01
      vertex   1.390014e+01 -1.512872e+00 -6.002545e-01
    endloop
  endfacet
  facet normal -3.491781e-04 -9.999999e-01 3.478802e-05
    outer loop
      vertex   1.832947e+01 -1.514398e+00 6.347656e-05
      vertex   1.390014e+01 -1.512872e+00 -6.002545e-01
      vertex   1.138669e+01 -1.513150e+00 -3.380024e+01
    endloop
  endfacet
  facet normal -3.488531e-04 -9.999999e-01 3.476342e-05
    outer loop
      vertex   1.138669e+01 -1.513150e+00 -3.380024e+01
      vertex   1.390014e+01 -1.512872e+00 -6.002545e-01
      vertex   1.138669e+01 -1.512065e+00 -2.600482e+00
    endloop
  endfacet
  facet normal -3.490583e-04 -9.999999e-01 3.502126e-05
    outer loop
      vertex   1.138669e+01 -1.512065e+00 -2.600482e+00
      vertex   1.390014e+01 -1.512872e+00 -6.002545e-01
      vertex   4.430041e+00 -1.509567e+00 -6.002545e-01
    endloop
  endfacet
  facet normal -3.490583e-04 -9.999999e-01 3.502126e-05
    outer loop
      vertex   1.138669e+01 -1.512065e+00 -2.600482e+00
      vertex   4.430041e+00 -1.509567e+00 -6.002545e-01
      vertex   6.886695e+00 -1.510494e+00 -2.600482e+00
    endloop
  endfacet
  facet normal -9.999999e-01 3.502287e-04 -1.217515e-08
    outer loop
      vertex   -5.281448e-04 -1.509344e+00 -3.867367e+01
      vertex   -5.281448e-04 -1.508000e+00 6.347656e-05
      vertex   0.000000e+00 -1.344429e-03 -3.867367e+01
    endloop
  endfacet
  facet normal -9.999999e-01 3.502287e-04 -1.217515e-08
    outer loop
      vertex   0.000000e+00 -1.344429e-03 -3.867367e+01
      vertex   -5.281448e-04 -1.508000e+00 6.347656e-05
      vertex   0.000000e+00 0.000000e+00 0.000000e+00
    endloop
  endfacet
  facet normal 9.999999e-01 -3.492421e-04 1.214085e-08
    outer loop
      vertex   1.832947e+01 -1.515742e+00 -3.867367e+01
      vertex   1.833000e+01 -7.742668e-03 -3.867367e+01
      vertex   1.832947e+01 -1.514398e+00 6.347656e-05
    endloop
  endfacet
  facet normal 9.999999e-01 -3.492421e-04 1.214085e-08
    outer loop
      vertex   1.832947e+01 -1.514398e+00 6.347656e-05
      vertex   1.833000e+01 -7.742668e-03 -3.867367e+01
      vertex   1.833000e+01 -6.398239e-03 0.000000e+00
    endloop
  endfacet
  facet normal 0.000000e+00 0.000000e+00 -1.000000e+00
    outer loop
      vertex   1.832947e+01 -1.515742e+00 -3.867367e+01
      vertex   1.296567e+01 -1.513870e+00 -3.867367e+01
      vertex   1.833000e+01 -7.742668e-03 -3.867367e+01
    endloop
  endfacet
  facet normal 0.000000e+00 0.000000e+00 -1.000000e+00
    outer loop
      vertex   1.833000e+01 -7.742668e-03 -3.867367e+01
      vertex   1.296567e+01 -1.513870e+00 -3.867367e+01
      vertex   5.565256e+00 -1.511287e+00 -3.867367e+01
    endloop
  endfacet
  facet normal -0.000000e+00 0.000000e+00 -1.000000e+00
    outer loop
      vertex   1.833000e+01 -7.742668e-03 -3.867367e+01
      vertex   5.565256e+00 -1.511287e+00 -3.867367e+01
      vertex   0.000000e+00 -1.344429e-03 -3.867367e+01
    endloop
  endfacet
  facet normal 0.000000e+00 -0.000000e+00 -1.000000e+00
    outer loop
      vertex   0.000000e+00 -1.344429e-03 -3.867367e+01
      vertex   5.565256e+00 -1.511287e+00 -3.867367e+01
      vertex   -5.281448e-04 -1.509344e+00 -3.867367e+01
    endloop
  endfacet
  facet normal 0.000000e+00 -0.000000e+00 -1.000000e+00
    outer loop
      vertex   5.565256e+00 -1.511287e+00 -3.867367e+01
      vertex   1.296567e+01 -1.513870e+00 -3.867367e+01
      vertex   5.254473e+00 -2.845094e+00 -3.867367e+01
    endloop
  endfacet
  facet normal 0.000000e+00 0.000000e+00 -1.000000e+00
    outer loop
      vertex   5.254473e+00 -2.845094e+00 -3.867367e+01
      vertex   1.296567e+01 -1.513870e+00 -3.867367e+01
      vertex   1.341848e+01 -2.824091e+00 -3.867367e+01
    endloop
  endfacet
  facet normal 0.000000e+00 0.000000e+00 -1.000000e+00
    outer loop
      vertex   5.254473e+00 -2.845094e+00 -3.867367e+01
      vertex   1.341848e+01 -2.824091e+00 -3.867367e+01
      vertex   1.341793e+01 -4.393714e+00 -3.867367e+01
    endloop
  endfacet
  facet normal 0.000000e+00 0.000000e+00 -1.000000e+00
    outer loop
      vertex   1.341793e+01 -4.393714e+00 -3.867367e+01
      vertex   5.253933e+00 -4.390863e+00 -3.867367e+01
      vertex   5.254473e+00 -2.845094e+00 -3.867367e+01
    endloop
  endfacet
  facet normal -9.856328e-01 -1.689021e-01 5.891133e-06
    outer loop
      vertex   1.045794e+01 -6.441255e+01 -3.599897e+00
      vertex   1.045794e+01 -6.441251e+01 -2.599937e+00
      vertex   1.027665e+01 -6.335465e+01 -3.599897e+00
    endloop
  endfacet
  facet normal -9.856328e-01 -1.689021e-01 5.891133e-06
    outer loop
      vertex   1.027665e+01 -6.335465e+01 -3.599897e+00
      vertex   1.045794e+01 -6.441251e+01 -2.599937e+00
      vertex   7.268751e+00 -4.580192e+01 -2.599937e+00
    endloop
  endfacet
  facet normal -9.856328e-01 -1.689021e-01 5.891133e-06
    outer loop
      vertex   1.027665e+01 -6.335465e+01 -3.599897e+00
      vertex   7.268751e+00 -4.580192e+01 -2.599937e+00
      vertex   7.432181e+00 -4.675565e+01 -3.599897e+00
    endloop
  endfacet
  facet normal -9.856328e-01 -1.689021e-01 5.891133e-06
    outer loop
      vertex   7.432181e+00 -4.675565e+01 -3.599897e+00
      vertex   7.268751e+00 -4.580192e+01 -2.599937e+00
      vertex   7.268751e+00 -4.580195e+01 -3.599897e+00
    endloop
  endfacet
  facet normal -9.856328e-01 -1.689021e-01 5.891133e-06
    outer loop
      vertex   1.027665e+01 -6.335465e+01 -3.599897e+00
      vertex   7.432181e+00 -4.675565e+01 -3.599897e+00
      vertex   1.027648e+01 -6.335465e+01 -3.259990e+01
    endloop
  endfacet
  facet normal -9.856328e-01 -1.689021e-01 5.891133e-06
    outer loop
      vertex   1.027648e+01 -6.335465e+01 -3.259990e+01
      vertex   7.432181e+00 -4.675565e+01 -3.599897e+00
      vertex   7.432008e+00 -4.675565e+01 -3.259990e+01
    endloop
  endfacet
  facet normal -9.856328e-01 -1.689021e-01 5.892605e-06
    outer loop
      vertex   1.027648e+01 -6.335465e+01 -3.259990e+01
      vertex   7.432008e+00 -4.675565e+01 -3.259990e+01
      vertex   7.268751e+00 -4.580300e+01 -3.379964e+01
    endloop
  endfacet
  facet normal -9.856328e-01 -1.689021e-01 5.892605e-06
    outer loop
      vertex   7.268751e+00 -4.580300e+01 -3.379964e+01
      vertex   7.432008e+00 -4.675565e+01 -3.259990e+01
      vertex   7.268751e+00 -4.580296e+01 -3.259990e+01
    endloop
  endfacet
  facet normal -9.856328e-01 -1.689021e-01 5.892605e-06
    outer loop
      vertex   7.268751e+00 -4.580300e+01 -3.379964e+01
      vertex   1.045794e+01 -6.441360e+01 -3.379964e+01
      vertex   1.027648e+01 -6.335465e+01 -3.259990e+01
    endloop
  endfacet
  facet normal -9.856328e-01 -1.689021e-01 5.892605e-06
    outer loop
      vertex   1.027648e+01 -6.335465e+01 -3.259990e+01
      vertex   1.045794e+01 -6.441360e+01 -3.379964e+01
      vertex   1.045794e+01 -6.441356e+01 -3.259990e+01
    endloop
  endfacet
  facet normal -9.855266e-01 1.695210e-01 -5.903780e-06
    outer loop
      vertex   7.261940e+00 -8.299279e+01 -3.599897e+00
      vertex   7.261940e+00 -8.299276e+01 -2.599937e+00
      vertex   7.441027e+00 -8.195166e+01 -3.599897e+00
    endloop
  endfacet
  facet normal -9.855266e-01 1.695210e-01 -5.903780e-06
    outer loop
      vertex   7.441027e+00 -8.195166e+01 -3.599897e+00
      vertex   7.261940e+00 -8.299276e+01 -2.599937e+00
      vertex   1.045794e+01 -6.441251e+01 -2.599937e+00
    endloop
  endfacet
  facet normal -9.855266e-01 1.695210e-01 -5.903780e-06
    outer loop
      vertex   7.441027e+00 -8.195166e+01 -3.599897e+00
      vertex   1.045794e+01 -6.441251e+01 -2.599937e+00
      vertex   1.029589e+01 -6.535465e+01 -3.599897e+00
    endloop
  endfacet
  facet normal -9.855266e-01 1.695210e-01 -5.903780e-06
    outer loop
      vertex   1.029589e+01 -6.535465e+01 -3.599897e+00
      vertex   1.045794e+01 -6.441251e+01 -2.599937e+00
      vertex   1.045794e+01 -6.441255e+01 -3.599897e+00
    endloop
  endfacet
  facet normal -9.855266e-01 1.695210e-01 -5.903780e-06
    outer loop
      vertex   7.441027e+00 -8.195166e+01 -3.599897e+00
      vertex   1.029589e+01 -6.535465e+01 -3.599897e+00
      vertex   7.441201e+00 -8.195166e+01 -3.259990e+01
    endloop
  endfacet
  facet normal -9.855266e-01 1.695210e-01 -5.903780e-06
    outer loop
      vertex   7.441201e+00 -8.195166e+01 -3.259990e+01
      vertex   1.029589e+01 -6.535465e+01 -3.599897e+00
      vertex   1.029606e+01 -6.535465e+01 -3.259990e+01
    endloop
  endfacet
  facet normal -9.855266e-01 1.695210e-01 -5.905255e-06
    outer loop
      vertex   7.441201e+00 -8.195166e+01 -3.259990e+01
      vertex   1.029606e+01 -6.535465e+01 -3.259990e+01
      vertex   1.045794e+01 -6.441360e+01 -3.379964e+01
    endloop
  endfacet
  facet normal -9.855266e-01 1.695210e-01 -5.905255e-06
    outer loop
      vertex   1.045794e+01 -6.441360e+01 -3.379964e+01
      vertex   1.029606e+01 -6.535465e+01 -3.259990e+01
      vertex   1.045794e+01 -6.441356e+01 -3.259990e+01
    endloop
  endfacet
  facet normal -9.855266e-01 1.695210e-01 -5.905255e-06
    outer loop
      vertex   1.045794e+01 -6.441360e+01 -3.379964e+01
      vertex   7.261942e+00 -8.299384e+01 -3.379964e+01
      vertex   7.441201e+00 -8.195166e+01 -3.259990e+01
    endloop
  endfacet
  facet normal -9.855266e-01 1.695210e-01 -5.905255e-06
    outer loop
      vertex   7.441201e+00 -8.195166e+01 -3.259990e+01
      vertex   7.261942e+00 -8.299384e+01 -3.379964e+01
      vertex   7.261942e+00 -8.299380e+01 -3.259990e+01
    endloop
  endfacet
  facet normal 1.689079e-01 -9.856318e-01 3.372261e-05
    outer loop
      vertex   1.045602e+01 -1.015629e+02 -3.599897e+00
      vertex   1.045602e+01 -1.015629e+02 -2.599937e+00
      vertex   1.044452e+01 -1.015649e+02 -3.599897e+00
    endloop
  endfacet
  facet normal 1.689079e-01 -9.856318e-01 3.372261e-05
    outer loop
      vertex   1.044452e+01 -1.015649e+02 -3.599897e+00
      vertex   1.045602e+01 -1.015629e+02 -2.599937e+00
      vertex   1.044452e+01 -1.015648e+02 -2.599937e+00
    endloop
  endfacet
  facet normal 1.689079e-01 -9.856318e-01 3.372293e-05
    outer loop
      vertex   1.044194e+01 -1.387569e+02 -3.379964e+01
      vertex   1.103393e+01 -1.386554e+02 -3.379964e+01
      vertex   1.044195e+01 -1.387558e+02 -2.599937e+00
    endloop
  endfacet
  facet normal 1.689079e-01 -9.856318e-01 3.372293e-05
    outer loop
      vertex   1.044195e+01 -1.387558e+02 -2.599937e+00
      vertex   1.103393e+01 -1.386554e+02 -3.379964e+01
      vertex   1.103393e+01 -1.386543e+02 -2.599937e+00
    endloop
  endfacet
  facet normal 3.490584e-04 9.999999e-01 -3.476342e-05
    outer loop
      vertex   1.833000e+01 -7.742668e-03 -3.867367e+01
      vertex   0.000000e+00 -1.344429e-03 -3.867367e+01
      vertex   1.833000e+01 -6.398239e-03 0.000000e+00
    endloop
  endfacet
  facet normal 3.490584e-04 9.999999e-01 -3.476342e-05
    outer loop
      vertex   1.833000e+01 -6.398239e-03 0.000000e+00
      vertex   0.000000e+00 -1.344429e-03 -3.867367e+01
      vertex   0.000000e+00 0.000000e+00 0.000000e+00
    endloop
  endfacet
  facet normal 1.469299e-08 4.209321e-05 1.000000e+00
    outer loop
      vertex   6.356899e+00 -3.158680e+00 1.328656e-04
      vertex   1.390014e+01 -1.512852e+00 6.347656e-05
      vertex   4.430043e+00 -1.509546e+00 6.347656e-05
    endloop
  endfacet
  facet normal 1.469299e-08 4.209321e-05 1.000000e+00
    outer loop
      vertex   4.430043e+00 -1.509546e+00 6.347656e-05
      vertex   1.390014e+01 -1.512852e+00 6.347656e-05
      vertex   1.833000e+01 -6.398239e-03 0.000000e+00
    endloop
  endfacet
  facet normal 1.469299e-08 4.209321e-05 1.000000e+00
    outer loop
      vertex   4.430043e+00 -1.509546e+00 6.347656e-05
      vertex   1.833000e+01 -6.398239e-03 0.000000e+00
      vertex   0.000000e+00 0.000000e+00 0.000000e+00
    endloop
  endfacet
  facet normal 1.469303e-08 4.209321e-05 1.000000e+00
    outer loop
      vertex   6.356899e+00 -3.158680e+00 1.328656e-04
      vertex   1.199890e+01 -3.160649e+00 1.328656e-04
      vertex   1.390014e+01 -1.512852e+00 6.347656e-05
    endloop
  endfacet
  facet normal 1.469299e-08 4.209321e-05 1.000000e+00
    outer loop
      vertex   1.390014e+01 -1.512852e+00 6.347656e-05
      vertex   1.832947e+01 -1.514398e+00 6.347656e-05
      vertex   1.833000e+01 -6.398239e-03 0.000000e+00
    endloop
  endfacet
  facet normal 1.469299e-08 4.209321e-05 1.000000e+00
    outer loop
      vertex   0.000000e+00 0.000000e+00 0.000000e+00
      vertex   -5.281448e-04 -1.508000e+00 6.347656e-05
      vertex   4.430043e+00 -1.509546e+00 6.347656e-05
    endloop
  endfacet
  facet normal -3.491239e-04 -9.999999e-01 3.581867e-05
    outer loop
      vertex   6.356899e+00 -3.158680e+00 1.328656e-04
      vertex   6.356898e+00 -3.158700e+00 -5.679565e-01
      vertex   1.199890e+01 -3.160649e+00 1.328656e-04
    endloop
  endfacet
  facet normal -3.491239e-04 -9.999999e-01 3.581867e-05
    outer loop
      vertex   1.199890e+01 -3.160649e+00 1.328656e-04
      vertex   6.356898e+00 -3.158700e+00 -5.679565e-01
      vertex   1.199890e+01 -3.160670e+00 -5.679565e-01
    endloop
  endfacet
  facet normal -6.502324e-01 -7.597353e-01 2.857335e-05
    outer loop
      vertex   6.356899e+00 -3.158680e+00 1.328656e-04
      vertex   4.430043e+00 -1.509546e+00 6.347656e-05
      vertex   6.356898e+00 -3.158700e+00 -5.679565e-01
    endloop
  endfacet
  facet normal -6.502324e-01 -7.597353e-01 2.857335e-05
    outer loop
      vertex   6.356898e+00 -3.158700e+00 -5.679565e-01
      vertex   4.430043e+00 -1.509546e+00 6.347656e-05
      vertex   4.430041e+00 -1.509566e+00 -5.679875e-01
    endloop
  endfacet
  facet normal 6.549430e-01 -7.556783e-01 2.842076e-05
    outer loop
      vertex   1.199890e+01 -3.160649e+00 1.328656e-04
      vertex   1.199890e+01 -3.160670e+00 -5.679565e-01
      vertex   1.390014e+01 -1.512852e+00 6.347656e-05
    endloop
  endfacet
  facet normal 6.549430e-01 -7.556783e-01 2.842076e-05
    outer loop
      vertex   1.390014e+01 -1.512852e+00 6.347656e-05
      vertex   1.199890e+01 -3.160670e+00 -5.679565e-01
      vertex   1.390014e+01 -1.512872e+00 -5.679875e-01
    endloop
  endfacet
endsolid
