solid testblock_ascii
   facet normal 1.000000e+000 0.000000e+000 0.000000e+000
      outer loop
         vertex 5.710632e+001 1.000000e+001 0.000000e+000
         vertex 5.710632e+001 1.000000e+001 5.735461e+001
         vertex 5.710632e+001 0.000000e+000 0.000000e+000
      endloop
   endfacet
   facet normal 1.000000e+000 0.000000e+000 0.000000e+000
      outer loop
         vertex 5.710632e+001 0.000000e+000 0.000000e+000
         vertex 5.710632e+001 1.000000e+001 5.735461e+001
         vertex 5.710632e+001 0.000000e+000 5.735461e+001
      endloop
   endfacet
   facet normal 0.000000e+000 0.000000e+000 -1.000000e+000
      outer loop
         vertex 0.000000e+000 1.000000e+001 0.000000e+000
         vertex 5.710632e+001 1.000000e+001 0.000000e+000
         vertex 0.000000e+000 0.000000e+000 0.000000e+000
      endloop
   endfacet
   facet normal 0.000000e+000 0.000000e+000 -1.000000e+000
      outer loop
         vertex 0.000000e+000 0.000000e+000 0.000000e+000
         vertex 5.710632e+001 1.000000e+001 0.000000e+000
         vertex 5.710632e+001 0.000000e+000 0.000000e+000
      endloop
   endfacet
   facet normal -1.000000e+000 0.000000e+000 0.000000e+000
      outer loop
         vertex 0.000000e+000 1.000000e+001 5.735461e+001
         vertex 0.000000e+000 1.000000e+001 0.000000e+000
         vertex 0.000000e+000 0.000000e+000 5.735461e+001
      endloop
   endfacet
   facet normal -1.000000e+000 0.000000e+000 0.000000e+000
      outer loop
         vertex 0.000000e+000 0.000000e+000 5.735461e+001
         vertex 0.000000e+000 1.000000e+001 0.000000e+000
         vertex 0.000000e+000 0.000000e+000 0.000000e+000
      endloop
   endfacet
   facet normal 0.000000e+000 0.000000e+000 1.000000e+000
      outer loop
         vertex 5.710632e+001 1.000000e+001 5.735461e+001
         vertex 0.000000e+000 1.000000e+001 5.735461e+001
         vertex 5.710632e+001 0.000000e+000 5.735461e+001
      endloop
   endfacet
   facet normal 0.000000e+000 0.000000e+000 1.000000e+000
      outer loop
         vertex 5.710632e+001 0.000000e+000 5.735461e+001
         vertex 0.000000e+000 1.000000e+001 5.735461e+001
         vertex 0.000000e+000 0.000000e+000 5.735461e+001
      endloop
   endfacet
   facet normal 0.000000e+000 1.000000e+000 0.000000e+000
      outer loop
         vertex 0.000000e+000 1.000000e+001 0.000000e+000
         vertex 0.000000e+000 1.000000e+001 5.735461e+001
         vertex 5.710632e+001 1.000000e+001 0.000000e+000
      endloop
   endfacet
   facet normal 0.000000e+000 1.000000e+000 0.000000e+000
      outer loop
         vertex 5.710632e+001 1.000000e+001 0.000000e+000
         vertex 0.000000e+000 1.000000e+001 5.735461e+001
         vertex 5.710632e+001 1.000000e+001 5.735461e+001
      endloop
   endfacet
   facet normal 0.000000e+000 -1.000000e+000 0.000000e+000
      outer loop
         vertex 0.000000e+000 0.000000e+000 5.735461e+001
         vertex 0.000000e+000 0.000000e+000 0.000000e+000
         vertex 5.710632e+001 0.000000e+000 5.735461e+001
      endloop
   endfacet
   facet normal 0.000000e+000 -1.000000e+000 0.000000e+000
      outer loop
         vertex 5.710632e+001 0.000000e+000 5.735461e+001
         vertex 0.000000e+000 0.000000e+000 0.000000e+000
         vertex 5.710632e+001 0.000000e+000 0.000000e+000
      endloop
   endfacet
endsolid